<?xml version="1.0" encoding="utf-8" standalone="no"?>
<!DOCTYPE svg PUBLIC "-//W3C//DTD SVG 1.1//EN"
  "http://www.w3.org/Graphics/SVG/1.1/DTD/svg11.dtd">
<!-- Created with matplotlib (http://matplotlib.org/) -->
<svg height="288pt" version="1.1" viewBox="0 0 432 288" width="432pt" xmlns="http://www.w3.org/2000/svg" xmlns:xlink="http://www.w3.org/1999/xlink">
 <defs>
  <style type="text/css">
*{stroke-linecap:butt;stroke-linejoin:round;}
  </style>
 </defs>
 <g id="figure_1">
  <g id="patch_1">
   <path d="M 0 288 
L 432 288 
L 432 0 
L 0 0 
z
" style="fill:#ffffff;"/>
  </g>
  <g id="axes_1">
   <g id="PatchCollection_1">
    <path clip-path="url(#p474f935ea7)" d="M 250.228368 196.013756 
L 250.419563 197.346009 
L 251.46296 197.702169 
L 251.693968 198.47291 
L 252.420006 198.381076 
L 253.1073 199.613548 
L 254.570684 199.994773 
L 256.256747 199.786135 
L 257.266827 200.80718 
L 257.533827 201.071506 
L 256.946792 202.846557 
L 256.946792 204.410182 
L 257.711955 205.620531 
L 257.83705 207.256464 
L 259.998885 208.616953 
L 260.616563 209.332006 
L 260.182591 210.904036 
L 259.932097 212.147626 
L 259.069579 212.740278 
L 258.342624 212.721861 
L 258.68566 213.29667 
L 257.447629 214.301094 
L 257.464364 215.703345 
L 256.056535 215.920407 
L 255.194399 216.561297 
L 252.91534 214.220417 
L 252.088967 214.507018 
L 250.363931 213.780828 
L 243.800633 212.665141 
L 242.223082 211.872201 
L 242.342751 211.602334 
L 241.939269 211.043077 
L 241.719494 211.491033 
L 241.329921 210.923446 
L 239.933325 210.328043 
L 238.850955 210.188926 
L 230.215 207.070045 
L 229.655704 206.149107 
L 226.517184 204.549318 
L 225.715952 203.514289 
L 225.131669 203.55605 
L 224.36108 203.063581 
L 222.811345 200.968535 
L 221.186415 199.95303 
L 220.212634 199.838939 
L 219.238929 200.537276 
L 218.874267 200.509956 
L 219.222346 197.98323 
L 220.810902 197.702169 
L 221.684347 197.109517 
L 222.056116 196.822495 
L 221.910312 194.344924 
L 222.24349 193.761958 
L 224.491982 193.637036 
L 224.950025 194.469847 
L 225.595443 194.865419 
L 226.178428 194.927871 
L 227.741078 194.382942 
L 229.825426 194.708459 
L 230.590666 194.547104 
L 231.235701 195.30111 
L 231.609303 195.220376 
L 231.550233 194.944931 
L 232.774203 194.997831 
L 233.850918 195.846383 
L 234.462941 196.188636 
L 234.77243 195.698746 
L 233.500394 194.463657 
L 233.008574 191.803793 
L 233.425199 191.111876 
L 233.88095 191.854267 
L 234.844491 191.116576 
L 235.43145 191.269524 
L 236.16062 191.614585 
L 236.850741 194.435822 
L 237.657017 195.813046 
L 238.118804 195.746239 
L 239.491023 194.558223 
L 239.783471 193.645652 
L 241.833432 193.139237 
L 242.762891 193.378517 
L 244.218022 192.065311 
L 245.760728 193.049791 
L 247.612234 195.086875 
L 248.166027 195.123021 
L 248.452591 194.452538 
L 249.237316 194.380133 
L 250.228368 196.013756 
" style="fill:#f7fbff;stroke:#000000;stroke-width:0.1;"/>
    <path clip-path="url(#p474f935ea7)" d="M 357.911607 194.89056 
L 356.064151 194.943823 
L 354.901544 197.365514 
L 354.089232 197.869102 
L 353.79411 199.114698 
L 352.522226 200.359148 
L 352.488144 200.954015 
L 350.536302 199.669217 
L 349.462492 200.167685 
L 349.473496 201.5417 
L 346.583942 201.53893 
L 346.705292 183.181613 
L 363.376488 173.059711 
L 365.513259 169.431683 
L 365.52732 164.64804 
L 365.899929 164.732423 
L 366.055819 165.032933 
L 368.515222 165.302799 
L 369.514144 164.793633 
L 369.63366 164.123113 
L 369.224677 163.997942 
L 368.356733 164.395806 
L 367.505296 164.148177 
L 366.959984 164.629489 
L 366.776278 164.401347 
L 367.318838 163.872732 
L 368.234313 164.053573 
L 369.800708 163.435895 
L 370.894081 163.88664 
L 371.848376 165.377917 
L 372.646933 165.369588 
L 372.797169 167.843013 
L 373.542846 168.162971 
L 373.100391 169.353776 
L 372.6775 169.554103 
L 372.146097 171.298549 
L 370.251415 173.538291 
L 368.659956 174.6484 
L 366.62054 177.544717 
L 366.2004 178.766127 
L 366.587223 180.741543 
L 366.575225 181.01353 
L 366.491701 181.223543 
L 366.197649 181.935138 
L 366.119704 181.381459 
L 366.446998 181.161435 
L 366.506526 180.605215 
L 366.075229 180.265771 
L 366.32282 180.936292 
L 365.713471 181.67639 
L 365.068054 181.732021 
L 364.272248 183.429203 
L 364.344691 182.917248 
L 363.526724 182.953432 
L 363.612922 183.774188 
L 364.308469 184.083027 
L 364.216616 184.650614 
L 365.248856 184.099724 
L 366.459148 184.277775 
L 366.736389 183.8955 
L 366.595476 183.69907 
L 366.553752 183.985672 
L 365.646683 183.888278 
L 366.475807 183.907765 
L 366.545499 183.359664 
L 366.804247 183.913305 
L 366.264437 185.232108 
L 365.602208 185.702302 
L 365.212788 185.749604 
L 365.493696 185.360068 
L 364.653416 185.705091 
L 364.152732 186.525847 
L 364.041469 187.229762 
L 364.514337 187.599811 
L 365.396341 186.539755 
L 365.919491 186.4424 
L 365.805324 186.884778 
L 366.308912 186.567571 
L 365.521512 187.555298 
L 364.394668 192.065311 
L 363.618424 193.039131 
L 363.323608 195.596003 
L 362.633563 196.614297 
L 362.438853 197.816259 
L 362.374815 197.368303 
L 362.002053 197.312672 
L 362.338594 196.519731 
L 362.057685 196.859137 
L 361.66536 195.340045 
L 360.101717 194.547104 
L 360.900274 192.902765 
L 360.535765 191.019202 
L 359.684327 192.507689 
L 359.606535 191.892838 
L 358.376681 192.869409 
L 359.022251 192.382518 
L 358.963716 193.011277 
L 359.400515 192.849922 
L 357.911607 194.89056 
" style="fill:#f7fbff;stroke:#000000;stroke-width:0.1;"/>
    <path clip-path="url(#p474f935ea7)" d="M 370.994188 177.135733 
L 370.727187 175.772417 
L 371.539499 174.292259 
L 371.926322 174.041879 
L 372.641278 174.270022 
L 373.581818 173.780342 
L 372.073806 176.150834 
L 370.994188 177.135733 
" style="fill:#f7fbff;stroke:#000000;stroke-width:0.1;"/>
    <path clip-path="url(#p474f935ea7)" d="M 247.880839 188.284812 
L 247.322996 186.127944 
L 248.485909 185.64667 
L 249.601596 184.294492 
L 249.879907 184.945545 
L 250.416812 185.159799 
L 250.450206 185.983325 
L 251.059555 186.645478 
L 251.343291 188.331503 
L 251.096159 188.819788 
L 250.419563 189.096628 
L 249.395729 188.548546 
L 247.880839 188.284812 
" style="fill:#08306b;stroke:#000000;stroke-width:0.1;"/>
    <path clip-path="url(#p474f935ea7)" d="M 237.910492 177.647001 
L 237.226331 179.122268 
L 235.896217 180.619085 
L 233.915032 179.842842 
L 232.290408 180.421566 
L 231.719497 180.285238 
L 231.550233 179.328212 
L 230.857131 179.097242 
L 229.155326 178.830107 
L 227.953441 179.456115 
L 227.085038 179.34212 
L 226.60323 178.894106 
L 226.701425 177.906417 
L 226.088409 176.353224 
L 224.623037 176.509764 
L 223.95202 177.784016 
L 222.480612 177.572571 
L 221.798514 177.781208 
L 221.483982 177.5809 
L 221.180531 176.045111 
L 220.880059 176.016569 
L 220.743808 176.420719 
L 220.729823 175.658403 
L 219.595949 175.798322 
L 219.792264 175.043514 
L 220.903061 173.774763 
L 219.765212 171.946832 
L 219.937533 171.54337 
L 222.205205 168.65542 
L 222.288347 168.171338 
L 224.108216 167.244859 
L 224.928552 166.407406 
L 224.371626 164.337367 
L 225.257069 163.099278 
L 224.809342 161.939021 
L 225.444367 161.099065 
L 226.428006 161.315822 
L 227.468651 161.051495 
L 228.659533 161.991901 
L 231.016384 162.217255 
L 233.188842 163.981206 
L 234.627161 164.607214 
L 235.212133 164.515456 
L 236.385974 163.163278 
L 237.743215 163.179917 
L 238.782867 163.807224 
L 242.815924 165.480717 
L 242.946445 166.638281 
L 243.475097 167.286526 
L 242.487484 167.934866 
L 241.107394 167.662134 
L 240.622835 167.873675 
L 240.423463 168.777821 
L 239.910705 169.195192 
L 239.616194 170.658652 
L 237.031009 170.422161 
L 236.658476 170.213543 
L 236.049433 170.430491 
L 234.702279 172.773147 
L 235.777007 173.593865 
L 236.218697 175.953277 
L 236.83072 176.378957 
L 236.667417 176.7824 
L 237.910492 177.647001 
" style="fill:#f7fbff;stroke:#000000;stroke-width:0.1;"/>
    <path clip-path="url(#p474f935ea7)" d="M 304.927309 205.98311 
L 304.144953 205.208758 
L 304.28128 204.510345 
L 303.926094 204.121001 
L 303.399276 202.89663 
L 302.239114 202.509922 
L 302.169575 202.234477 
L 301.577038 202.27343 
L 301.134584 201.416452 
L 300.06062 200.92406 
L 300.299958 199.811181 
L 299.885319 199.04044 
L 299.86866 198.166822 
L 299.43423 197.63284 
L 302.141759 196.689415 
L 301.949799 197.181884 
L 302.879029 197.103977 
L 303.427092 196.386154 
L 305.021455 196.199773 
L 305.11881 195.643305 
L 302.381097 196.605968 
L 305.040865 195.49028 
L 309.294996 195.328926 
L 309.105788 195.993868 
L 309.651099 195.840843 
L 309.559246 196.333312 
L 309.95157 195.685029 
L 309.439577 195.398465 
L 311.570845 195.262138 
L 313.162305 194.318962 
L 313.799469 193.879373 
L 314.147166 195.42907 
L 314.230613 194.202082 
L 313.963613 193.523232 
L 316.056367 193.20037 
L 316.623381 194.588866 
L 319.313868 194.599985 
L 319.26649 198.152895 
L 321.052812 199.549548 
L 322.296345 200.214529 
L 324.58893 200.220126 
L 324.761479 198.759474 
L 326.316717 198.731639 
L 327.646677 199.09332 
L 328.973963 199.966919 
L 331.032712 200.050366 
L 331.039131 201.524009 
L 331.024306 207.178557 
L 326.481013 207.328793 
L 326.976195 206.471892 
L 326.592276 205.868121 
L 325.893902 205.695648 
L 325.779047 205.037183 
L 324.199509 204.680105 
L 324.210666 203.286165 
L 323.865567 202.590637 
L 322.9141 202.465351 
L 323.121877 201.994394 
L 322.983716 201.174459 
L 322.616456 200.837823 
L 321.723218 200.857252 
L 321.392256 201.182789 
L 321.342127 200.773824 
L 320.948121 200.606853 
L 320.067798 201.402525 
L 320.159651 201.844941 
L 319.308137 201.836631 
L 317.182676 202.562802 
L 316.973982 203.05529 
L 313.217936 206.121329 
L 312.511232 205.69284 
L 311.776713 204.432419 
L 310.969979 204.287781 
L 310.699998 202.429283 
L 310.883475 200.540046 
L 309.406259 200.292455 
L 308.184734 199.813875 
L 307.731352 200.131081 
L 306.90498 203.656157 
L 305.555609 204.649462 
L 304.927309 205.98311 
" style="fill:#f7fbff;stroke:#000000;stroke-width:0.1;"/>
    <path clip-path="url(#p474f935ea7)" d="M 269.041378 120.05371 
L 269.077371 122.528416 
L 267.856075 125.282826 
L 265.955739 128.371141 
L 264.915246 131.771045 
L 263.8746 136.400727 
L 263.485026 141.737113 
L 262.572455 141.795534 
L 263.195711 141.976375 
L 263.220776 143.161602 
L 263.521248 142.1294 
L 263.08995 146.633873 
L 263.340445 150.590245 
L 263.198463 151.155043 
L 263.165145 150.398248 
L 262.694875 151.914589 
L 262.027144 152.312454 
L 262.274887 152.565623 
L 261.849092 153.586706 
L 262.093932 153.842703 
L 262.472349 153.030276 
L 262.294297 154.474251 
L 262.985106 156.978281 
L 262.985106 156.978339 
L 261.990922 157.446488 
L 261.49574 156.939366 
L 261.618084 156.393997 
L 259.728981 155.829276 
L 258.816409 154.941655 
L 257.812214 154.96949 
L 257.606118 155.673424 
L 255.842186 155.253245 
L 254.579396 155.471511 
L 253.878041 155.464691 
L 251.941406 156.252168 
L 248.419197 155.194863 
L 246.94733 152.857803 
L 246.482868 153.318636 
L 245.364277 152.384744 
L 245.419908 153.50324 
L 240.550697 151.61129 
L 240.231198 151.260728 
L 241.354985 150.342654 
L 241.638721 149.624794 
L 240.459532 148.372778 
L 239.824507 148.436778 
L 240.145076 147.232045 
L 240.289275 146.480829 
L 239.996827 146.091312 
L 240.475579 145.53771 
L 241.836336 145.916031 
L 241.154773 144.321764 
L 242.334345 142.168296 
L 244.746675 142.00142 
L 245.737038 140.685406 
L 246.221216 140.696525 
L 245.814984 139.694909 
L 244.660324 138.860264 
L 244.604692 137.452396 
L 245.152678 135.94448 
L 244.451705 134.650703 
L 243.981436 134.884367 
L 243.405634 134.336285 
L 244.796652 133.07596 
L 245.047146 133.19005 
L 246.588552 132.052106 
L 248.140886 131.576354 
L 249.092583 131.860109 
L 248.778127 130.855685 
L 249.306779 129.492387 
L 249.226083 129.100063 
L 249.671212 129.147327 
L 250.319457 128.387819 
L 250.806386 128.871901 
L 251.486802 128.846951 
L 251.688466 128.876104 
L 256.304126 125.380181 
L 256.237338 124.676343 
L 255.04936 124.400898 
L 255.177282 119.726665 
L 254.890718 119.189702 
L 252.584149 119.019942 
L 251.769086 119.659858 
L 250.769247 118.710033 
L 250.613127 118.642328 
L 249.594871 118.819615 
L 248.961604 116.693982 
L 248.243973 116.682883 
L 247.567836 115.984547 
L 246.85563 116.042948 
L 246.260189 115.055259 
L 246.902855 114.490442 
L 246.577319 113.305235 
L 245.714954 112.857317 
L 244.412733 112.965791 
L 245.061054 111.059914 
L 244.384841 110.592472 
L 243.39165 110.447833 
L 243.731094 107.988373 
L 243.238663 105.445294 
L 242.718264 105.005782 
L 241.7697 105.100329 
L 241.560853 104.34361 
L 243.540892 102.913238 
L 243.577648 102.956299 
L 245.233374 103.446399 
L 245.458193 104.531576 
L 245.82125 104.667083 
L 245.289464 106.390877 
L 246.073884 106.879353 
L 246.355481 107.587356 
L 246.17613 109.2956 
L 246.800609 109.627115 
L 246.822618 110.117101 
L 247.874267 111.011236 
L 249.073249 113.790425 
L 249.044593 114.132582 
L 249.71775 114.70739 
L 249.665098 115.396595 
L 251.342374 115.639199 
L 251.64659 115.989571 
L 252.538681 115.841914 
L 253.960113 117.174205 
L 254.740865 116.989926 
L 255.857163 117.579979 
L 256.208987 117.385995 
L 256.898803 118.035845 
L 257.272711 118.009309 
L 257.465587 118.4804 
L 257.82276 118.268439 
L 258.032295 118.387764 
L 257.826046 118.61604 
L 258.740069 119.044013 
L 259.916737 118.940029 
L 259.985512 119.251848 
L 260.348875 119.003761 
L 262.078037 118.996291 
L 264.276171 119.363837 
L 264.62723 119.979261 
L 265.00771 120.057684 
L 264.855946 120.26743 
L 266.415845 121.149186 
L 266.903691 121.147543 
L 266.950305 120.429796 
L 267.717073 120.213021 
L 267.689945 119.947988 
L 269.041378 120.05371 
" style="fill:#f7fbff;stroke:#000000;stroke-width:0.1;"/>
    <path clip-path="url(#p474f935ea7)" d="M 197.534454 156.465906 
L 197.197914 155.141982 
L 195.731549 155.553831 
L 194.518583 154.930537 
L 194.036851 153.408693 
L 193.066279 152.885543 
L 190.656394 154.171009 
L 190.656394 152.863305 
L 191.839329 151.820023 
L 191.491708 150.401037 
L 188.914623 149.249185 
L 187.507329 149.299277 
L 186.609888 148.971352 
L 186.463626 148.172451 
L 185.339839 148.200305 
L 184.288112 147.108537 
L 183.784372 146.770201 
L 183.461816 144.94225 
L 182.992081 144.07146 
L 181.765054 142.037585 
L 181.541764 139.077326 
L 181.024879 138.640412 
L 180.599237 137.508085 
L 178.125239 135.721915 
L 176.65383 136.779125 
L 175.420843 136.606633 
L 174.224918 133.896678 
L 172.397025 131.985299 
L 171.756956 131.915683 
L 171.116964 131.197937 
L 169.528409 128.126301 
L 169.356089 126.665648 
L 169.76278 123.544112 
L 173.20628 123.379758 
L 175.276644 121.710372 
L 175.404872 119.387221 
L 176.583756 118.797378 
L 176.940317 118.121298 
L 176.114021 115.828694 
L 177.168651 115.903812 
L 178.222365 115.441967 
L 178.896438 113.675227 
L 179.0858 112.064338 
L 179.349209 111.891865 
L 179.700727 112.236811 
L 180.345839 111.19905 
L 183.086226 113.0381 
L 184.25808 112.960174 
L 184.774964 113.711391 
L 187.371077 115.00236 
L 189.252157 114.176044 
L 189.416377 114.376352 
L 190.537184 114.996858 
L 192.200857 114.66303 
L 192.673649 115.258375 
L 193.385778 115.085902 
L 194.568713 116.037427 
L 195.133587 116.087423 
L 198.767441 112.022576 
L 202.213998 112.298021 
L 204.350463 112.977215 
L 207.439389 115.753576 
L 207.876112 116.74969 
L 207.303214 118.841948 
L 207.406377 122.169505 
L 205.814765 124.186644 
L 205.816828 124.954596 
L 206.534918 125.755771 
L 206.373678 126.273304 
L 205.614476 126.85073 
L 206.677206 128.106853 
L 208.07342 129.024945 
L 208.276766 130.571929 
L 209.064013 131.120011 
L 211.153405 131.631928 
L 212.558636 132.653088 
L 212.380356 131.000418 
L 214.005973 128.855261 
L 215.627617 131.331457 
L 215.541419 135.10141 
L 213.320895 135.034602 
L 213.001396 135.285021 
L 207.990279 134.862129 
L 204.534704 136.870959 
L 204.653915 137.802959 
L 202.146904 138.899141 
L 201.899466 141.019253 
L 202.0698 142.265747 
L 202.573617 142.888946 
L 201.457776 143.40369 
L 201.287519 143.907202 
L 199.871208 145.164814 
L 199.69094 147.68558 
L 198.953746 148.216926 
L 198.639214 149.018311 
L 198.063336 155.436952 
L 197.534454 156.465906 
" style="fill:#f7fbff;stroke:#000000;stroke-width:0.1;"/>
    <path clip-path="url(#p474f935ea7)" d="M 243.540892 102.913238 
L 241.560853 104.34361 
L 241.7697 105.100329 
L 242.718264 105.005782 
L 243.238663 105.445294 
L 243.731094 107.988373 
L 243.39165 110.447833 
L 244.384841 110.592472 
L 245.061054 111.059914 
L 244.412733 112.965791 
L 245.714954 112.857317 
L 246.577319 113.305235 
L 246.902855 114.490442 
L 246.260189 115.055259 
L 246.85563 116.042948 
L 247.567836 115.984547 
L 248.243973 116.682883 
L 248.961604 116.693982 
L 249.594871 118.819615 
L 250.613127 118.642328 
L 250.769247 118.710033 
L 251.769086 119.659858 
L 252.584149 119.019942 
L 254.890718 119.189702 
L 255.177282 119.726665 
L 255.04936 124.400898 
L 256.237338 124.676343 
L 256.304126 125.380181 
L 251.688466 128.876104 
L 251.486802 128.846951 
L 250.806386 128.871901 
L 250.319457 128.387819 
L 249.671212 129.147327 
L 249.226083 129.100063 
L 249.306779 129.492387 
L 248.778127 130.855685 
L 249.092583 131.860109 
L 248.140886 131.576354 
L 246.588552 132.052106 
L 245.047146 133.19005 
L 244.796652 133.07596 
L 243.405634 134.336285 
L 243.981436 134.884367 
L 244.451705 134.650703 
L 245.152678 135.94448 
L 244.604692 137.452396 
L 244.660324 138.860264 
L 245.814984 139.694909 
L 246.221216 140.696525 
L 245.737038 140.685406 
L 244.746675 142.00142 
L 242.334345 142.168296 
L 241.154773 144.321764 
L 241.836336 145.916031 
L 240.475579 145.53771 
L 239.996827 146.091312 
L 240.289275 146.480829 
L 240.145076 147.232045 
L 237.680095 147.162525 
L 236.992953 147.699488 
L 236.366946 147.479636 
L 236.15764 146.859245 
L 236.433046 145.518185 
L 236.029412 143.52888 
L 236.539266 142.159986 
L 234.694255 140.031564 
L 235.086886 138.253685 
L 234.811479 136.717915 
L 232.465708 134.021887 
L 232.833274 130.688714 
L 233.723684 130.304795 
L 232.451647 129.225253 
L 232.974492 128.05678 
L 233.620521 127.625483 
L 235.27319 127.327801 
L 236.338901 127.491964 
L 236.964908 128.037256 
L 238.422256 127.475037 
L 238.805869 127.702416 
L 238.121784 127.060686 
L 238.817943 126.852048 
L 237.685062 126.359541 
L 236.293815 126.337304 
L 234.891564 125.166023 
L 233.789784 124.706891 
L 233.962105 124.242238 
L 234.930689 124.620654 
L 234.988766 124.322972 
L 234.362759 124.072573 
L 234.285654 123.521683 
L 233.606537 123.488327 
L 232.507737 122.163888 
L 232.379586 120.41948 
L 231.528149 119.721068 
L 231.569261 119.028348 
L 231.208649 118.482979 
L 230.343304 118.10185 
L 228.512354 115.887191 
L 232.763199 112.509448 
L 233.759753 113.305235 
L 234.550057 112.078265 
L 235.05288 111.86682 
L 235.381397 110.912487 
L 235.212133 109.276553 
L 234.121358 108.870301 
L 233.706719 109.479573 
L 233.113724 109.115084 
L 232.752119 109.318219 
L 232.476712 107.225961 
L 234.858552 105.626173 
L 236.428079 105.56779 
L 237.59894 102.471108 
L 238.890004 101.628038 
L 240.987725 103.219498 
L 242.642916 101.86174 
L 243.540892 102.913238 
" style="fill:#f7fbff;stroke:#000000;stroke-width:0.1;"/>
    <path clip-path="url(#p474f935ea7)" d="M 254.1455 183.848083 
L 254.184014 183.74641 
L 254.92694 182.310708 
L 253.788939 181.309092 
L 252.009876 181.200618 
L 251.590882 181.665271 
L 251.154083 181.62349 
L 250.967778 181.025337 
L 251.307222 179.770513 
L 250.425218 179.275312 
L 248.69468 179.926365 
L 247.951754 181.495587 
L 246.908357 181.937908 
L 246.443819 180.866771 
L 245.531248 180.176765 
L 245.870539 178.874677 
L 245.133345 178.243053 
L 244.089871 178.307052 
L 242.429713 176.991038 
L 242.526304 174.562125 
L 245.827134 173.073428 
L 245.533922 172.489392 
L 245.78159 171.526749 
L 246.82491 170.527846 
L 247.278521 169.225739 
L 246.989054 168.697201 
L 247.554004 168.663731 
L 247.785624 168.189869 
L 248.544444 168.552468 
L 250.080119 167.859748 
L 250.387468 168.105734 
L 250.300811 166.991747 
L 251.304318 166.738444 
L 251.679984 167.514687 
L 252.626026 167.826297 
L 254.540117 167.525806 
L 254.682176 166.32948 
L 255.591844 165.683948 
L 255.97026 166.15139 
L 255.870078 167.255978 
L 256.637915 168.135193 
L 257.369684 168.154622 
L 257.756506 167.336598 
L 258.11536 167.545331 
L 258.016783 167.840205 
L 257.863949 168.379383 
L 258.621699 168.104531 
L 259.442417 168.930865 
L 259.21714 169.484563 
L 258.983457 169.403829 
L 258.546658 170.06048 
L 258.440897 171.373705 
L 257.074714 171.095452 
L 256.532307 171.779861 
L 255.633644 172.119305 
L 255.75316 172.558913 
L 256.498836 172.497703 
L 255.079927 174.670714 
L 255.794807 175.925423 
L 256.215024 176.097896 
L 256.721363 175.277178 
L 257.394749 175.338388 
L 259.795769 173.068136 
L 260.441339 173.260038 
L 260.455247 173.616217 
L 260.321594 174.617814 
L 259.766807 175.366719 
L 259.122459 176.442956 
L 258.365702 176.55143 
L 258.287986 176.921537 
L 258.298837 177.51969 
L 259.406348 177.703282 
L 259.790267 178.643707 
L 258.16549 181.236782 
L 259.317246 182.97288 
L 258.170992 182.561107 
L 257.595114 183.295684 
L 257.305646 183.80762 
L 255.819948 183.253922 
L 254.1455 183.848083 
" style="fill:#f7fbff;stroke:#000000;stroke-width:0.1;"/>
    <path clip-path="url(#p474f935ea7)" d="M 117.555718 91.990372 
L 114.873637 90.768962 
L 115.652784 89.937049 
L 115.547023 88.890939 
L 115.947677 87.686226 
L 117.833953 87.015705 
L 117.878427 88.078512 
L 118.512841 89.733932 
L 117.875753 91.436693 
L 118.039896 91.737164 
L 117.555718 91.990372 
" style="fill:#f7fbff;stroke:#000000;stroke-width:0.1;"/>
    <path clip-path="url(#p474f935ea7)" d="M 150.122097 66.079049 
L 152.302578 66.078017 
L 151.6606 67.592754 
L 152.214546 67.946125 
L 152.595102 67.464755 
L 153.227147 73.198987 
L 153.800045 73.766593 
L 154.999027 79.606605 
L 154.443093 85.532739 
L 153.499573 85.535547 
L 154.33993 91.842887 
L 153.682898 92.591296 
L 154.923909 96.670069 
L 154.05352 97.44081 
L 151.766819 96.578311 
L 150.803278 96.506002 
L 150.352494 96.803684 
L 150.013967 96.570001 
L 149.106516 97.805281 
L 151.435246 101.719891 
L 152.478949 102.454373 
L 152.826493 103.578485 
L 154.025475 104.374158 
L 153.903208 105.534434 
L 154.21476 106.385795 
L 153.925292 108.060702 
L 154.537239 109.201339 
L 155.868422 109.969865 
L 155.811339 110.926414 
L 155.717193 111.265858 
L 149.135096 116.208983 
L 148.986924 115.828713 
L 148.085509 116.265551 
L 148.1578 115.110891 
L 147.798946 114.231714 
L 145.831821 112.718162 
L 146.221395 112.54844 
L 145.509036 112.292481 
L 145.38952 111.93634 
L 144.896936 112.250757 
L 145.475642 112.765464 
L 144.28774 112.559597 
L 143.575382 112.835003 
L 142.493165 112.222942 
L 141.088086 109.718911 
L 141.736331 110.166829 
L 140.932272 108.528106 
L 139.922346 108.622672 
L 137.404408 108.027269 
L 136.402811 106.936647 
L 135.451114 106.586084 
L 136.085528 106.460875 
L 135.646054 105.734723 
L 135.008966 105.901656 
L 134.775283 104.235079 
L 134.188172 103.010879 
L 134.855903 102.782737 
L 134.530367 102.785526 
L 134.633224 102.379293 
L 135.103494 102.190123 
L 134.535869 102.09273 
L 134.452421 101.341513 
L 135.387306 101.160672 
L 135.451114 100.904714 
L 134.510804 100.696057 
L 134.446919 100.968713 
L 132.788672 100.392758 
L 132.065309 100.515178 
L 132.443573 100.32043 
L 132.040244 99.70279 
L 131.625606 100.609783 
L 131.951142 100.62369 
L 131.750777 101.213553 
L 130.590615 99.89196 
L 129.527808 100.211918 
L 128.147871 99.001626 
L 125.966473 96.28615 
L 126.175244 95.768655 
L 123.573858 94.911715 
L 122.894894 93.673608 
L 121.05294 91.937491 
L 121.481562 91.714927 
L 121.890546 92.082187 
L 121.973917 91.556324 
L 120.835992 91.222458 
L 119.419833 89.914811 
L 118.874598 89.825747 
L 118.860614 88.200932 
L 118.290238 87.697344 
L 118.415485 86.526026 
L 117.633664 86.192122 
L 117.155064 86.311791 
L 117.124574 86.61784 
L 116.601424 86.247791 
L 116.415119 85.741415 
L 116.746157 84.536702 
L 114.737309 82.405471 
L 113.877618 80.533027 
L 113.081965 80.366094 
L 112.951139 77.444713 
L 112.327959 76.760284 
L 111.90224 76.743587 
L 112.083043 76.100882 
L 111.793728 75.210587 
L 109.693179 72.534045 
L 109.334173 71.376634 
L 109.701432 70.024436 
L 109.303529 68.83088 
L 109.826603 69.51806 
L 110.085351 67.776403 
L 109.54004 67.192119 
L 109.083831 67.208816 
L 109.445512 67.48705 
L 109.142213 67.517655 
L 108.115628 66.624532 
L 107.787341 66.844345 
L 108.326997 67.075239 
L 107.973645 67.103093 
L 104.139807 66.018011 
L 104.381743 65.984617 
L 104.114666 64.540604 
L 101.638528 63.416587 
L 101.059822 63.494494 
L 100.892851 62.90467 
L 100.673076 63.783847 
L 101.037585 63.82836 
L 100.586725 64.331947 
L 100.024755 64.582366 
L 98.792303 64.465486 
L 94.643932 61.897495 
L 93.51151 61.827917 
L 90.296878 60.027897 
L 90.487156 58.13866 
L 90.060521 56.951141 
L 90.834701 55.809892 
L 91.110184 54.76382 
L 92.286011 54.449326 
L 92.269352 54.622946 
L 107.219334 59.065636 
L 126.846032 65.19672 
L 129.826293 66.1573 
L 136.030049 66.13703 
L 150.122097 66.079049 
" style="fill:#f7fbff;stroke:#000000;stroke-width:0.1;"/>
    <path clip-path="url(#p474f935ea7)" d="M 222.22622 159.545356 
L 221.033275 160.834529 
L 220.22402 161.148851 
L 219.851411 161.980783 
L 218.278826 163.113205 
L 215.746751 162.795999 
L 214.225366 162.028066 
L 213.259762 162.425892 
L 212.155002 161.432701 
L 212.225076 160.361584 
L 213.605319 158.828507 
L 214.325472 156.875367 
L 216.17247 156.285524 
L 217.422498 155.066845 
L 217.809091 155.091891 
L 217.945343 156.099124 
L 218.490196 155.934961 
L 219.12522 156.416235 
L 219.139205 156.805846 
L 220.443336 157.139693 
L 220.120857 158.283139 
L 221.322742 158.516898 
L 222.22622 159.545356 
" style="fill:#f7fbff;stroke:#000000;stroke-width:0.1;"/>
    <path clip-path="url(#p474f935ea7)" d="M 174.400448 164.017046 
L 174.135739 162.729229 
L 174.756168 162.509416 
L 175.312637 162.759834 
L 175.760516 163.541618 
L 175.462872 164.540464 
L 174.400448 164.017046 
" style="fill:#f7fbff;stroke:#000000;stroke-width:0.1;"/>
    <path clip-path="url(#p474f935ea7)" d="M 176.623111 165.47531 
L 175.499018 165.16926 
L 175.896844 164.56549 
L 177.151763 164.640646 
L 177.343799 164.985631 
L 176.623111 165.47531 
" style="fill:#f7fbff;stroke:#000000;stroke-width:0.1;"/>
    <path clip-path="url(#p474f935ea7)" d="M 187.917076 172.751674 
L 187.404395 172.005253 
L 186.458277 172.14437 
L 185.184101 171.832741 
L 185.954766 171.484968 
L 187.446042 169.504012 
L 188.219611 169.031029 
L 188.503347 167.397846 
L 188.24735 166.195922 
L 188.825979 165.16926 
L 188.422574 164.468135 
L 187.835692 164.454227 
L 186.266318 163.591709 
L 185.654218 161.914013 
L 184.085149 159.785572 
L 184.224151 156.7919 
L 183.480079 154.971993 
L 183.679146 154.924423 
L 184.183956 154.793521 
L 186.085057 154.165412 
L 185.835632 152.83826 
L 184.875071 152.120514 
L 185.211611 151.280252 
L 186.188219 150.609674 
L 185.751497 149.936403 
L 186.001915 149.238067 
L 186.609888 148.971352 
L 187.507329 149.299277 
L 188.914623 149.249185 
L 191.491708 150.401037 
L 191.839329 151.820023 
L 190.656394 152.863305 
L 190.656394 154.171009 
L 193.066279 152.885543 
L 194.036851 153.408693 
L 194.518583 154.930537 
L 195.731549 155.553831 
L 197.197914 155.141982 
L 197.534454 156.465906 
L 197.3522 157.01349 
L 196.618979 158.898028 
L 199.716005 161.80831 
L 199.123009 163.689141 
L 198.578157 164.19825 
L 201.205371 165.923534 
L 201.040081 166.796827 
L 200.227769 167.56197 
L 198.372824 167.899103 
L 198.550112 169.899125 
L 197.899039 171.073214 
L 197.792896 172.603483 
L 195.973944 171.384824 
L 195.294826 170.519535 
L 194.393412 170.444398 
L 193.422841 169.551275 
L 192.941108 169.473445 
L 191.149207 170.424969 
L 189.803046 170.427682 
L 187.917076 172.751674 
" style="fill:#f7fbff;stroke:#000000;stroke-width:0.1;"/>
    <path clip-path="url(#p474f935ea7)" d="M 225.444367 161.099065 
L 224.809342 161.939021 
L 225.257069 163.099278 
L 224.371626 164.337367 
L 224.928552 166.407406 
L 224.108216 167.244859 
L 222.288347 168.171338 
L 222.205205 168.65542 
L 219.937533 171.54337 
L 219.765212 171.946832 
L 220.903061 173.774763 
L 219.792264 175.043514 
L 219.595949 175.798322 
L 218.565314 176.259365 
L 216.242544 176.309437 
L 214.4537 177.400098 
L 212.94928 177.723322 
L 211.790417 178.053654 
L 210.179853 178.771705 
L 209.704081 179.456115 
L 209.804188 179.803869 
L 210.279959 179.881795 
L 210.449223 180.699819 
L 211.380745 180.171664 
L 211.519977 180.382708 
L 212.596692 180.701119 
L 212.775966 180.699609 
L 213.258768 180.873286 
L 213.404037 181.512227 
L 212.372332 182.128816 
L 212.434459 182.633321 
L 213.042432 183.776958 
L 213.192668 184.967782 
L 214.583914 184.789692 
L 214.945519 185.635552 
L 213.929862 187.463502 
L 212.992379 187.157414 
L 210.981085 187.955895 
L 210.913991 188.743352 
L 209.718066 189.349835 
L 209.339496 190.162243 
L 207.811998 189.043747 
L 207.181023 189.967532 
L 205.865888 190.039842 
L 205.414187 188.982537 
L 205.74171 186.45348 
L 204.217192 184.90107 
L 202.428348 185.78019 
L 199.974371 184.519864 
L 199.184143 185.065137 
L 199.359367 185.874832 
L 198.093368 186.514767 
L 196.778232 186.996041 
L 196.351596 186.859732 
L 195.914873 187.4051 
L 195.244773 187.168533 
L 194.697934 188.274209 
L 194.014995 188.028281 
L 193.291633 187.407813 
L 192.543205 187.499628 
L 192.671127 186.820778 
L 191.786448 186.904226 
L 190.712408 186.255981 
L 189.938916 185.22099 
L 189.610629 184.052422 
L 187.933047 182.90334 
L 185.442772 179.433896 
L 185.0088 177.500204 
L 183.879205 175.972744 
L 183.856815 175.446919 
L 185.025459 174.787517 
L 187.1121 174.556585 
L 188.191719 173.944485 
L 188.252852 173.240571 
L 187.917076 172.751674 
L 189.803046 170.427682 
L 191.149207 170.424969 
L 192.941108 169.473445 
L 193.422841 169.551275 
L 194.393412 170.444398 
L 195.294826 170.519535 
L 195.973944 171.384824 
L 197.792896 172.603483 
L 197.899039 171.073214 
L 198.550112 169.899125 
L 198.372824 167.899103 
L 200.227769 167.56197 
L 201.040081 166.796827 
L 201.205371 165.923534 
L 198.578157 164.19825 
L 199.123009 163.689141 
L 199.716005 161.80831 
L 196.618979 158.898028 
L 197.3522 157.01349 
L 199.209131 156.235432 
L 201.151268 155.976723 
L 201.437755 154.546618 
L 200.358977 153.834374 
L 200.711565 153.066441 
L 200.583337 152.003615 
L 202.63666 152.421004 
L 202.951193 153.286197 
L 201.947609 153.881638 
L 202.320142 154.760853 
L 201.816325 155.044627 
L 201.969617 157.821294 
L 203.24364 153.889967 
L 204.070013 153.92061 
L 204.509716 154.407501 
L 203.649338 158.200895 
L 203.833579 158.533538 
L 204.276339 158.845128 
L 205.438182 158.488357 
L 206.946652 156.382879 
L 206.570987 155.300624 
L 206.938629 154.59669 
L 208.871748 155.971106 
L 208.652355 156.580397 
L 210.112683 156.797441 
L 209.389549 158.182975 
L 209.757115 158.759006 
L 208.958863 159.910743 
L 207.7339 159.838434 
L 206.721222 160.330922 
L 206.192417 161.18511 
L 205.182797 161.811118 
L 205.56641 162.348081 
L 205.519337 163.739213 
L 204.156135 165.05794 
L 203.321815 164.50705 
L 203.63031 165.803636 
L 203.126493 167.158623 
L 203.001246 167.436761 
L 203.287733 167.642705 
L 204.198164 167.255978 
L 204.642911 167.795749 
L 205.23285 167.69549 
L 210.110696 169.134001 
L 209.812211 167.801251 
L 210.325045 166.607733 
L 211.048255 166.827489 
L 211.604112 166.387881 
L 212.336263 166.468597 
L 213.802628 165.853708 
L 214.283443 164.201058 
L 212.976331 163.491622 
L 213.259762 162.425892 
L 214.225366 162.028066 
L 215.746751 162.795999 
L 218.278826 163.113205 
L 219.851411 161.980783 
L 220.22402 161.148851 
L 221.033275 160.834529 
L 222.22622 159.545356 
L 222.685944 159.510204 
L 225.444367 161.099065 
" style="fill:#abd0e6;stroke:#000000;stroke-width:0.1;"/>
    <path clip-path="url(#p474f935ea7)" d="M 203.202757 192.835862 
L 200.608784 190.749335 
L 197.498385 189.630859 
L 197.370311 188.757222 
L 196.162923 188.801735 
L 194.697934 188.274209 
L 195.244773 187.168533 
L 195.914873 187.4051 
L 196.351596 186.859732 
L 196.778232 186.996041 
L 198.093368 186.514767 
L 199.359367 185.874832 
L 199.184143 185.065137 
L 199.974371 184.519864 
L 202.428348 185.78019 
L 204.217192 184.90107 
L 205.74171 186.45348 
L 205.414187 188.982537 
L 205.865888 190.039842 
L 204.885305 190.89682 
L 204.551745 190.813296 
L 204.3484 191.795464 
L 203.827619 191.956837 
L 203.202757 192.835862 
" style="fill:#f7fbff;stroke:#000000;stroke-width:0.1;"/>
    <path clip-path="url(#p474f935ea7)" d="M 273.264026 195.412392 
L 274.416622 194.497013 
L 274.0298 192.905554 
L 276.717537 194.307824 
L 277.207216 195.835265 
L 278.23105 196.806333 
L 278.411777 197.584983 
L 278.726232 197.922039 
L 279.165935 197.86914 
L 279.277198 198.308652 
L 279.834431 198.084196 
L 282.162396 198.53412 
L 282.741026 199.212913 
L 282.791155 200.317481 
L 281.628242 201.939603 
L 282.883008 204.488108 
L 283.536755 204.719078 
L 285.189424 204.404661 
L 286.399716 203.403045 
L 287.150894 203.319521 
L 288.692377 202.398639 
L 288.73945 203.251414 
L 288.277433 203.786467 
L 290.105785 206.271565 
L 290.7875 206.380039 
L 291.126944 207.515174 
L 297.52885 208.013183 
L 302.082459 208.238537 
L 302.136257 209.621359 
L 301.763342 209.613048 
L 301.724369 210.926254 
L 300.400064 211.74147 
L 300.455695 213.218858 
L 299.582097 214.651657 
L 300.450193 216.922004 
L 299.979007 218.247953 
L 299.445769 217.486783 
L 298.758475 217.787292 
L 297.857061 217.55636 
L 297.128196 216.810722 
L 296.563322 216.966498 
L 296.646769 217.751109 
L 298.09915 218.416089 
L 297.392446 217.993159 
L 298.591581 218.135066 
L 298.995062 218.569076 
L 299.91153 218.806637 
L 300.13291 218.864007 
L 301.190215 219.796074 
L 300.185944 219.392812 
L 296.852637 218.054369 
L 295.517174 217.884647 
L 293.555704 217.790081 
L 294.646327 217.175192 
L 295.024743 216.571422 
L 294.131582 216.134623 
L 292.904632 217.177982 
L 292.715423 216.89138 
L 293.071679 216.435094 
L 292.181269 215.47801 
L 290.125195 217.00826 
L 292.09232 217.236402 
L 292.451174 216.919234 
L 292.484491 217.194679 
L 291.482971 217.347665 
L 293.018799 217.509058 
L 293.232919 217.815108 
L 289.446307 217.731622 
L 289.3462 218.110039 
L 288.592118 218.260275 
L 287.201024 219.197872 
L 287.128734 219.629131 
L 286.588924 219.979694 
L 281.338775 221.576713 
L 278.960068 222.848195 
L 276.414314 222.8788 
L 276.013584 223.329526 
L 272.374456 222.489284 
L 268.796462 220.627958 
L 262.903646 220.074279 
L 262.041052 219.545684 
L 262.052208 219.139452 
L 259.075157 217.787292 
L 260.104646 217.918042 
L 259.767953 217.614781 
L 256.754833 217.141798 
L 255.194399 216.561297 
L 256.056535 215.920407 
L 257.464364 215.703345 
L 257.447629 214.301094 
L 258.68566 213.29667 
L 258.342624 212.721861 
L 259.069579 212.740278 
L 259.932097 212.147626 
L 260.182591 210.904036 
L 260.616563 209.332006 
L 259.998885 208.616953 
L 257.83705 207.256464 
L 257.711955 205.620531 
L 256.946792 204.410182 
L 256.946792 202.846557 
L 257.533827 201.071506 
L 257.266827 200.80718 
L 257.647994 200.498379 
L 258.276753 200.631899 
L 259.155853 199.477239 
L 261.323344 199.399313 
L 261.525237 199.73975 
L 262.308205 200.478855 
L 263.36551 199.800062 
L 262.789479 197.997062 
L 263.562971 196.628243 
L 264.275254 196.316653 
L 264.617525 196.789617 
L 264.341966 197.997062 
L 266.264616 199.950202 
L 267.062944 198.698187 
L 267.947775 198.122347 
L 268.696203 197.93035 
L 269.96503 198.342103 
L 271.1391 198.219703 
L 271.901435 197.315461 
L 272.894626 196.875853 
L 273.506879 195.871429 
L 273.264026 195.412392 
" style="fill:#f7fbff;stroke:#000000;stroke-width:0.1;"/>
    <path clip-path="url(#p474f935ea7)" d="M 304.927309 205.98311 
L 304.551185 206.663794 
L 302.082459 208.238537 
L 297.52885 208.013183 
L 291.126944 207.515174 
L 290.7875 206.380039 
L 290.105785 206.271565 
L 288.277433 203.786467 
L 288.73945 203.251414 
L 288.692377 202.398639 
L 287.150894 203.319521 
L 286.399716 203.403045 
L 285.189424 204.404661 
L 283.536755 204.719078 
L 282.883008 204.488108 
L 281.628242 201.939603 
L 282.791155 200.317481 
L 282.741026 199.212913 
L 282.162396 198.53412 
L 279.834431 198.084196 
L 279.277198 198.308652 
L 279.165935 197.86914 
L 278.726232 197.922039 
L 278.411777 197.584983 
L 278.23105 196.806333 
L 277.207216 195.835265 
L 276.717537 194.307824 
L 274.0298 192.905554 
L 274.416622 194.497013 
L 273.264026 195.412392 
L 272.694337 194.190925 
L 270.379515 194.95326 
L 269.322211 193.28397 
L 268.034127 193.392444 
L 267.30786 192.020837 
L 268.284468 190.841131 
L 268.253902 189.44719 
L 268.114899 188.108939 
L 269.063463 187.772303 
L 269.967781 187.878064 
L 270.749526 187.032205 
L 270.204215 186.628762 
L 268.907725 186.639976 
L 268.298376 185.969398 
L 267.416372 185.691145 
L 267.227164 184.319537 
L 266.35922 183.843765 
L 267.21616 183.504321 
L 267.672369 182.861597 
L 267.908956 182.199426 
L 267.666867 180.741581 
L 269.391903 178.518498 
L 269.30005 178.220816 
L 266.94572 177.053853 
L 266.637378 177.068964 
L 266.053017 177.294337 
L 265.607965 178.482334 
L 265.112707 178.626972 
L 264.609119 178.009389 
L 263.830201 177.931463 
L 263.226278 177.138484 
L 263.165374 175.289309 
L 263.821795 174.990614 
L 264.467289 175.510956 
L 265.050656 174.784499 
L 264.965222 173.799809 
L 263.332039 173.179399 
L 263.415487 171.752102 
L 262.013236 171.632414 
L 261.921535 172.620103 
L 261.264808 173.018045 
L 261.120227 174.489816 
L 259.766807 175.366719 
L 260.321594 174.617814 
L 260.455247 173.616217 
L 260.441339 173.260038 
L 259.795769 173.068136 
L 257.394749 175.338388 
L 256.721363 175.277178 
L 256.215024 176.097896 
L 255.794807 175.925423 
L 255.079927 174.670714 
L 256.498836 172.497703 
L 255.75316 172.558913 
L 255.633644 172.119305 
L 256.532307 171.779861 
L 257.074714 171.095452 
L 258.440897 171.373705 
L 258.546658 170.06048 
L 258.983457 169.403829 
L 259.21714 169.484563 
L 259.442417 168.930865 
L 258.621699 168.104531 
L 257.863949 168.379383 
L 258.016783 167.840205 
L 258.11536 167.545331 
L 257.756506 167.336598 
L 257.369684 168.154622 
L 256.637915 168.135193 
L 255.870078 167.255978 
L 255.97026 166.15139 
L 255.591844 165.683948 
L 255.497392 164.387458 
L 254.317591 163.580552 
L 254.612408 162.720881 
L 255.113244 162.773761 
L 255.113244 162.384226 
L 255.48891 162.462152 
L 256.23451 161.844455 
L 255.839511 161.146138 
L 255.530634 161.299086 
L 255.102088 160.820621 
L 255.369241 160.547984 
L 255.19119 160.330922 
L 255.555622 160.150043 
L 255.007636 160.252996 
L 254.855108 159.910858 
L 255.742691 159.922263 
L 255.928766 159.676372 
L 256.050116 159.491482 
L 257.288911 157.376165 
L 254.579396 155.471511 
L 255.842186 155.253245 
L 257.606118 155.673424 
L 257.812214 154.96949 
L 258.816409 154.941655 
L 259.728981 155.829276 
L 261.618084 156.393997 
L 261.49574 156.939366 
L 261.990922 157.446488 
L 262.985106 156.978339 
L 262.962028 158.08285 
L 263.763337 159.894084 
L 265.196154 161.916803 
L 267.588921 164.028547 
L 267.474907 164.99396 
L 266.592903 166.963798 
L 265.99196 165.330615 
L 266.890623 164.952236 
L 267.06302 164.290045 
L 264.553488 161.774896 
L 264.216795 160.673117 
L 262.939715 158.775646 
L 263.607446 160.317014 
L 264.052651 162.957372 
L 265.076485 164.793633 
L 265.891701 164.835395 
L 265.925172 165.953833 
L 268.757489 171.554546 
L 269.049555 172.923402 
L 274.007639 178.120671 
L 276.297396 181.080987 
L 278.008524 186.559241 
L 279.110304 187.421721 
L 279.619393 187.471812 
L 279.936524 188.693223 
L 280.387231 189.107785 
L 281.077276 189.127271 
L 281.761666 190.994137 
L 282.983114 191.595118 
L 283.25577 191.678603 
L 283.211295 192.082008 
L 281.286047 191.074833 
L 282.696551 192.25452 
L 282.026069 192.173823 
L 282.323789 192.560569 
L 283.038746 192.271217 
L 285.072659 192.997369 
L 283.458886 192.210007 
L 283.470043 191.759261 
L 285.047595 192.541083 
L 288.667312 192.605082 
L 290.283836 193.587231 
L 290.609372 194.138121 
L 292.779461 194.494224 
L 295.007473 197.821265 
L 296.018011 198.258637 
L 299.13139 197.738352 
L 299.43423 197.63284 
L 299.86866 198.166822 
L 299.885319 199.04044 
L 300.299958 199.811181 
L 300.06062 200.92406 
L 301.134584 201.416452 
L 301.577038 202.27343 
L 302.169575 202.234477 
L 302.239114 202.509922 
L 303.399276 202.89663 
L 303.926094 204.121001 
L 304.28128 204.510345 
L 304.144953 205.208758 
L 304.927309 205.98311 
" style="fill:#f7fbff;stroke:#000000;stroke-width:0.1;"/>
    <path clip-path="url(#p474f935ea7)" d="M 337.139419 171.228799 
L 337.484747 170.263558 
L 337.005995 171.049181 
L 336.508139 171.866136 
L 336.794702 171.049181 
L 337.01463 170.422161 
L 337.515314 169.426104 
L 339.813477 168.073945 
L 340.879188 167.781497 
L 343.171696 166.830259 
L 352.411574 165.556007 
L 353.819327 165.194287 
L 354.885038 164.331807 
L 356.390146 163.981245 
L 358.195878 164.134269 
L 360.046085 163.819852 
L 358.474036 163.997942 
L 359.339381 163.602828 
L 360.969813 163.6418 
L 363.843854 164.303991 
L 362.260801 164.156507 
L 363.370834 164.615582 
L 364.750924 164.68791 
L 364.021906 164.468135 
L 364.364101 164.38465 
L 365.52732 164.64804 
L 365.513259 169.431683 
L 363.376488 173.059711 
L 346.705292 183.181613 
L 340.595299 174.743023 
L 340.228116 175.257749 
L 338.605937 174.790306 
L 338.809053 174.10861 
L 337.092423 174.147563 
L 337.139419 171.228799 
" style="fill:#f7fbff;stroke:#000000;stroke-width:0.1;"/>
    <path clip-path="url(#p474f935ea7)" d="M 259.317246 182.97288 
L 260.739136 182.922788 
L 260.638801 183.540486 
L 261.10907 183.437514 
L 262.296972 184.288894 
L 261.924286 184.606101 
L 262.280389 185.348988 
L 263.003752 185.140255 
L 263.913572 185.961088 
L 264.623027 186.141871 
L 264.19173 186.845805 
L 262.411215 186.89028 
L 262.313707 187.663829 
L 261.732327 188.145103 
L 260.814101 187.680545 
L 259.92392 188.501263 
L 258.760778 188.754471 
L 256.137155 186.036206 
L 256.059286 185.485316 
L 254.460262 184.946252 
L 253.610887 183.927213 
L 254.1455 183.848083 
L 255.819948 183.253922 
L 257.305646 183.80762 
L 257.595114 183.295684 
L 258.170992 182.561107 
L 259.317246 182.97288 
" style="fill:#f7fbff;stroke:#000000;stroke-width:0.1;"/>
    <path clip-path="url(#p474f935ea7)" d="M 225.444367 161.099065 
L 222.685944 159.510204 
L 222.22622 159.545356 
L 221.322742 158.516898 
L 220.120857 158.283139 
L 220.443336 157.139693 
L 219.139205 156.805846 
L 219.12522 156.416235 
L 218.490196 155.934961 
L 217.945343 156.099124 
L 217.809091 155.091891 
L 217.422498 155.066845 
L 216.17247 156.285524 
L 214.325472 156.875367 
L 213.605319 158.828507 
L 212.225076 160.361584 
L 212.155002 161.432701 
L 213.259762 162.425892 
L 212.976331 163.491622 
L 214.283443 164.201058 
L 213.802628 165.853708 
L 212.336263 166.468597 
L 211.604112 166.387881 
L 211.048255 166.827489 
L 210.325045 166.607733 
L 209.812211 167.801251 
L 210.110696 169.134001 
L 205.23285 167.69549 
L 204.642911 167.795749 
L 204.198164 167.255978 
L 203.287733 167.642705 
L 203.001246 167.436761 
L 203.126493 167.158623 
L 203.63031 165.803636 
L 203.321815 164.50705 
L 204.156135 165.05794 
L 205.519337 163.739213 
L 205.56641 162.348081 
L 205.182797 161.811118 
L 206.192417 161.18511 
L 206.721222 160.330922 
L 207.7339 159.838434 
L 208.958863 159.910743 
L 209.757115 158.759006 
L 209.389549 158.182975 
L 210.112683 156.797441 
L 208.652355 156.580397 
L 208.871748 155.971106 
L 206.938629 154.59669 
L 206.570987 155.300624 
L 206.946652 156.382879 
L 205.438182 158.488357 
L 204.276339 158.845128 
L 203.833579 158.533538 
L 203.649338 158.200895 
L 204.509716 154.407501 
L 204.070013 153.92061 
L 203.24364 153.889967 
L 201.969617 157.821294 
L 201.816325 155.044627 
L 202.320142 154.760853 
L 201.947609 153.881638 
L 202.951193 153.286197 
L 202.63666 152.421004 
L 200.583337 152.003615 
L 200.711565 153.066441 
L 200.358977 153.834374 
L 201.437755 154.546618 
L 201.151268 155.976723 
L 199.209131 156.235432 
L 197.3522 157.01349 
L 197.534454 156.465906 
L 198.063336 155.436952 
L 198.639214 149.018311 
L 198.953746 148.216926 
L 199.69094 147.68558 
L 199.871208 145.164814 
L 201.287519 143.907202 
L 201.457776 143.40369 
L 202.573617 142.888946 
L 202.0698 142.265747 
L 201.899466 141.019253 
L 202.146904 138.899141 
L 204.653915 137.802959 
L 204.534704 136.870959 
L 207.990279 134.862129 
L 213.001396 135.285021 
L 213.320895 135.034602 
L 215.541419 135.10141 
L 215.627617 131.331457 
L 214.005973 128.855261 
L 214.016977 128.432389 
L 218.109563 128.05678 
L 222.313335 129.34496 
L 223.22583 130.558002 
L 224.836393 131.036468 
L 224.592012 131.7349 
L 224.89554 132.074344 
L 226.241701 132.004728 
L 227.093062 131.406574 
L 227.485692 131.832255 
L 228.27592 131.515048 
L 230.737921 133.724205 
L 231.981912 133.607306 
L 232.465708 134.021887 
L 230.883113 135.638392 
L 228.968028 138.495774 
L 226.67338 140.65205 
L 223.837777 142.696948 
L 223.342977 143.537191 
L 221.984819 144.157696 
L 220.109776 145.904912 
L 218.754598 145.754658 
L 218.746575 146.305547 
L 217.875192 147.468518 
L 218.737557 148.514704 
L 218.231754 149.624794 
L 219.255435 151.547291 
L 219.870438 152.09266 
L 221.342764 153.447647 
L 221.979852 154.723905 
L 223.607456 155.047416 
L 224.984642 153.673019 
L 225.883076 153.467076 
L 226.945807 153.711877 
L 227.582818 154.301816 
L 227.708066 155.111435 
L 227.090005 155.701278 
L 227.410575 158.870174 
L 225.444367 161.099065 
" style="fill:#f7fbff;stroke:#000000;stroke-width:0.1;"/>
    <path clip-path="url(#p474f935ea7)" d="M 205.865888 190.039842 
L 207.181023 189.967532 
L 207.811998 189.043747 
L 209.339496 190.162243 
L 209.718066 189.349835 
L 210.913991 188.743352 
L 210.981085 187.955895 
L 212.992379 187.157414 
L 213.929862 187.463502 
L 214.945519 185.635552 
L 214.583914 184.789692 
L 213.192668 184.967782 
L 213.042432 183.776958 
L 212.434459 182.633321 
L 212.372332 182.128816 
L 213.404037 181.512227 
L 213.258768 180.873286 
L 212.775966 180.699609 
L 212.596692 180.701119 
L 211.519977 180.382708 
L 211.380745 180.171664 
L 210.449223 180.699819 
L 210.279959 179.881795 
L 209.804188 179.803869 
L 209.704081 179.456115 
L 210.179853 178.771705 
L 211.790417 178.053654 
L 212.94928 177.723322 
L 214.4537 177.400098 
L 216.242544 176.309437 
L 218.565314 176.259365 
L 219.595949 175.798322 
L 220.729823 175.658403 
L 220.743808 176.420719 
L 220.880059 176.016569 
L 221.180531 176.045111 
L 221.483982 177.5809 
L 221.798514 177.781208 
L 222.480612 177.572571 
L 223.95202 177.784016 
L 224.623037 176.509764 
L 226.088409 176.353224 
L 226.701425 177.906417 
L 226.60323 178.894106 
L 227.085038 179.34212 
L 227.953441 179.456115 
L 229.155326 178.830107 
L 230.857131 179.097242 
L 231.550233 179.328212 
L 231.719497 180.285238 
L 232.290408 180.421566 
L 233.915032 179.842842 
L 235.896217 180.619085 
L 237.226331 179.122268 
L 237.910492 177.647001 
L 238.890004 178.871869 
L 239.487967 180.315996 
L 240.147063 180.925173 
L 239.273617 181.425971 
L 238.844994 183.287278 
L 239.326727 185.546507 
L 237.741152 186.358914 
L 237.871366 187.079488 
L 235.370392 189.878488 
L 235.415402 190.306977 
L 234.844491 191.116576 
L 233.88095 191.854267 
L 233.425199 191.111876 
L 233.008574 191.803793 
L 233.500394 194.463657 
L 234.77243 195.698746 
L 234.462941 196.188636 
L 233.850918 195.846383 
L 232.774203 194.997831 
L 231.550233 194.944931 
L 231.609303 195.220376 
L 231.235701 195.30111 
L 230.590666 194.547104 
L 229.825426 194.708459 
L 227.741078 194.382942 
L 226.178428 194.927871 
L 225.595443 194.865419 
L 224.950025 194.469847 
L 224.491982 193.637036 
L 222.24349 193.761958 
L 221.910312 194.344924 
L 222.056116 196.822495 
L 221.684347 197.109517 
L 220.810902 197.702169 
L 219.222346 197.98323 
L 218.874267 200.509956 
L 218.793647 200.50392 
L 215.802841 199.493955 
L 213.223616 199.068274 
L 210.37464 197.824589 
L 206.162233 196.586481 
L 204.868494 194.711248 
L 203.67211 193.943334 
L 203.789028 193.503746 
L 203.202757 192.835862 
L 203.827619 191.956837 
L 204.3484 191.795464 
L 204.551745 190.813296 
L 204.885305 190.89682 
L 205.865888 190.039842 
" style="fill:#f7fbff;stroke:#000000;stroke-width:0.1;"/>
    <path clip-path="url(#p474f935ea7)" d="M 239.487967 180.315996 
L 238.890004 178.871869 
L 237.910492 177.647001 
L 236.667417 176.7824 
L 236.83072 176.378957 
L 236.218697 175.953277 
L 235.777007 173.593865 
L 234.702279 172.773147 
L 236.049433 170.430491 
L 236.658476 170.213543 
L 237.031009 170.422161 
L 239.616194 170.658652 
L 239.910705 169.195192 
L 240.423463 168.777821 
L 240.622835 167.873675 
L 241.107394 167.662134 
L 242.487484 167.934866 
L 243.475097 167.286526 
L 242.946445 166.638281 
L 242.815924 165.480717 
L 243.291543 164.454265 
L 243.817292 164.123132 
L 244.927477 165.433548 
L 246.607886 165.060748 
L 247.058593 164.103703 
L 247.762546 164.031279 
L 248.177184 163.410888 
L 248.730749 163.22999 
L 249.854842 166.802443 
L 250.300811 166.991747 
L 250.387468 168.105734 
L 250.080119 167.859748 
L 248.544444 168.552468 
L 247.785624 168.189869 
L 247.554004 168.663731 
L 246.989054 168.697201 
L 247.278521 169.225739 
L 246.82491 170.527846 
L 245.78159 171.526749 
L 245.533922 172.489392 
L 245.827134 173.073428 
L 242.526304 174.562125 
L 242.429713 176.991038 
L 241.215906 177.263789 
L 241.096314 178.393308 
L 239.487967 180.315996 
" style="fill:#f7fbff;stroke:#000000;stroke-width:0.1;"/>
    <path clip-path="url(#p474f935ea7)" d="M 254.460262 184.946252 
L 254.078253 185.64667 
L 254.370472 188.056058 
L 254.117226 189.743975 
L 253.199153 190.023126 
L 251.096159 188.819788 
L 251.343291 188.331503 
L 251.059555 186.645478 
L 250.450206 185.983325 
L 250.416812 185.159799 
L 249.879907 184.945545 
L 249.601596 184.294492 
L 248.485909 185.64667 
L 247.322996 186.127944 
L 247.880839 188.284812 
L 247.484388 188.804562 
L 247.687504 189.986961 
L 246.429834 190.891222 
L 245.760728 193.049791 
L 244.218022 192.065311 
L 242.762891 193.378517 
L 241.833432 193.139237 
L 239.783471 193.645652 
L 239.491023 194.558223 
L 238.118804 195.746239 
L 237.657017 195.813046 
L 236.850741 194.435822 
L 236.16062 191.614585 
L 235.43145 191.269524 
L 234.844491 191.116576 
L 235.415402 190.306977 
L 235.370392 189.878488 
L 237.871366 187.079488 
L 237.741152 186.358914 
L 239.326727 185.546507 
L 238.844994 183.287278 
L 239.273617 181.425971 
L 240.147063 180.925173 
L 239.487967 180.315996 
L 241.096314 178.393308 
L 241.215906 177.263789 
L 242.429713 176.991038 
L 244.089871 178.307052 
L 245.133345 178.243053 
L 245.870539 178.874677 
L 245.531248 180.176765 
L 246.443819 180.866771 
L 246.908357 181.937908 
L 247.951754 181.495587 
L 248.69468 179.926365 
L 250.425218 179.275312 
L 251.307222 179.770513 
L 250.967778 181.025337 
L 251.154083 181.62349 
L 251.590882 181.665271 
L 252.009876 181.200618 
L 253.788939 181.309092 
L 254.92694 182.310708 
L 254.184014 183.74641 
L 254.1455 183.848083 
L 253.610887 183.927213 
L 254.460262 184.946252 
" style="fill:#f7fbff;stroke:#000000;stroke-width:0.1;"/>
    <path clip-path="url(#p474f935ea7)" d="M 273.264026 195.412392 
L 273.506879 195.871429 
L 272.894626 196.875853 
L 271.901435 197.315461 
L 271.1391 198.219703 
L 269.96503 198.342103 
L 268.696203 197.93035 
L 267.947775 198.122347 
L 267.062944 198.698187 
L 266.264616 199.950202 
L 264.341966 197.997062 
L 264.617525 196.789617 
L 264.275254 196.316653 
L 263.562971 196.628243 
L 262.789479 197.997062 
L 263.36551 199.800062 
L 262.308205 200.478855 
L 261.525237 199.73975 
L 261.323344 199.399313 
L 259.155853 199.477239 
L 258.276753 200.631899 
L 257.647994 200.498379 
L 257.266827 200.80718 
L 256.256747 199.786135 
L 254.570684 199.994773 
L 253.1073 199.613548 
L 252.420006 198.381076 
L 251.693968 198.47291 
L 251.46296 197.702169 
L 250.419563 197.346009 
L 250.228368 196.013756 
L 251.510338 195.570938 
L 252.545329 194.76965 
L 253.786188 195.537602 
L 254.028277 195.334466 
L 253.23889 192.525838 
L 254.086659 192.791482 
L 253.290777 191.731465 
L 254.175608 190.663041 
L 254.117226 189.743975 
L 254.370472 188.056058 
L 254.078253 185.64667 
L 254.460262 184.946252 
L 256.059286 185.485316 
L 256.137155 186.036206 
L 258.760778 188.754471 
L 259.92392 188.501263 
L 260.814101 187.680545 
L 261.732327 188.145103 
L 262.313707 187.663829 
L 262.411215 186.89028 
L 264.19173 186.845805 
L 264.623027 186.141871 
L 263.913572 185.961088 
L 263.003752 185.140255 
L 262.280389 185.348988 
L 261.924286 184.606101 
L 262.296972 184.288894 
L 261.10907 183.437514 
L 260.638801 183.540486 
L 260.739136 182.922788 
L 259.317246 182.97288 
L 258.16549 181.236782 
L 259.790267 178.643707 
L 259.406348 177.703282 
L 258.298837 177.51969 
L 258.287986 176.921537 
L 258.365702 176.55143 
L 259.122459 176.442956 
L 259.766807 175.366719 
L 261.120227 174.489816 
L 261.264808 173.018045 
L 261.921535 172.620103 
L 262.013236 171.632414 
L 263.415487 171.752102 
L 263.332039 173.179399 
L 264.965222 173.799809 
L 265.050656 174.784499 
L 264.467289 175.510956 
L 263.821795 174.990614 
L 263.165374 175.289309 
L 263.226278 177.138484 
L 263.830201 177.931463 
L 264.609119 178.009389 
L 265.112707 178.626972 
L 265.607965 178.482334 
L 266.053017 177.294337 
L 266.637378 177.068964 
L 266.94572 177.053853 
L 269.30005 178.220816 
L 269.391903 178.518498 
L 267.666867 180.741581 
L 267.908956 182.199426 
L 267.672369 182.861597 
L 267.21616 183.504321 
L 266.35922 183.843765 
L 267.227164 184.319537 
L 267.416372 185.691145 
L 268.298376 185.969398 
L 268.907725 186.639976 
L 270.204215 186.628762 
L 270.749526 187.032205 
L 269.967781 187.878064 
L 269.063463 187.772303 
L 268.114899 188.108939 
L 268.253902 189.44719 
L 268.284468 190.841131 
L 267.30786 192.020837 
L 268.034127 193.392444 
L 269.322211 193.28397 
L 270.379515 194.95326 
L 272.694337 194.190925 
L 273.264026 195.412392 
" style="fill:#f7fbff;stroke:#000000;stroke-width:0.1;"/>
    <path clip-path="url(#p474f935ea7)" d="M 128.476082 121.574083 
L 128.233993 121.259704 
L 128.623643 119.20917 
L 129.672542 118.853028 
L 129.544467 119.554154 
L 129.847842 119.885268 
L 129.116073 119.562521 
L 128.476082 121.574083 
" style="fill:#f7fbff;stroke:#000000;stroke-width:0.1;"/>
    <path clip-path="url(#p474f935ea7)" d="M 119.18615 126.799168 
L 118.496182 131.167313 
L 119.194556 132.47217 
L 119.099952 133.142691 
L 119.814909 133.674132 
L 120.001366 134.442008 
L 118.729941 132.995244 
L 118.988613 132.530629 
L 118.716033 131.776623 
L 117.477926 131.512297 
L 118.15391 130.466187 
L 119.18615 126.799168 
" style="fill:#f7fbff;stroke:#000000;stroke-width:0.1;"/>
    <path clip-path="url(#p474f935ea7)" d="M 133.584631 128.724951 
L 134.758395 129.275382 
L 135.225914 130.769448 
L 134.107475 130.304795 
L 133.456403 129.189108 
L 133.584631 128.724951 
" style="fill:#f7fbff;stroke:#000000;stroke-width:0.1;"/>
    <path clip-path="url(#p474f935ea7)" d="M 123.448535 136.342306 
L 120.357469 134.297351 
L 122.157776 134.211076 
L 122.265982 134.698005 
L 123.582111 135.707931 
L 123.448535 136.342306 
" style="fill:#f7fbff;stroke:#000000;stroke-width:0.1;"/>
    <path clip-path="url(#p474f935ea7)" d="M 142.676642 138.309355 
L 141.844843 137.752925 
L 141.402542 135.936074 
L 142.676642 138.309355 
" style="fill:#f7fbff;stroke:#000000;stroke-width:0.1;"/>
    <path clip-path="url(#p474f935ea7)" d="M 113.288902 99.569022 
L 112.987361 101.221882 
L 113.454727 101.500116 
L 113.780263 102.357056 
L 114.256035 102.443292 
L 114.787515 103.266838 
L 115.477483 103.300232 
L 117.074445 104.173869 
L 117.591864 106.160404 
L 118.487852 107.192605 
L 118.220699 107.251026 
L 118.304146 107.604378 
L 120.97232 108.561462 
L 121.050265 108.81188 
L 120.48264 109.048353 
L 120.215639 109.571427 
L 121.545523 111.190702 
L 121.353488 112.197877 
L 122.908878 113.950691 
L 123.225932 114.061992 
L 123.676716 113.566772 
L 122.466424 112.515045 
L 121.840416 110.859625 
L 122.049187 110.573062 
L 124.923229 112.350902 
L 124.962125 113.939572 
L 126.111206 114.454278 
L 125.738445 115.41419 
L 126.52019 116.137552 
L 126.578572 117.225424 
L 127.324249 118.519163 
L 126.915266 120.016018 
L 127.285276 121.153981 
L 127.602636 121.237428 
L 127.538522 121.799436 
L 128.256383 122.44493 
L 128.885141 123.830484 
L 130.356932 124.350769 
L 130.345851 125.416365 
L 131.080295 126.520934 
L 131.430895 127.881461 
L 131.992866 128.730033 
L 133.077986 129.41725 
L 133.637205 130.527397 
L 133.862712 131.648625 
L 133.278351 132.878403 
L 133.203157 133.838276 
L 133.656615 135.819232 
L 134.418951 136.781895 
L 135.49024 137.410692 
L 137.510169 137.738979 
L 137.151162 138.028332 
L 136.5613 137.805767 
L 137.009332 138.470709 
L 137.857942 137.736228 
L 137.551893 136.281096 
L 138.417085 136.105796 
L 139.160011 137.132458 
L 140.523289 137.986608 
L 140.968494 139.191321 
L 141.355164 139.405556 
L 142.36509 139.099506 
L 142.615585 139.416713 
L 142.323366 140.468401 
L 143.583864 141.656417 
L 143.697801 143.036392 
L 145.781691 143.882213 
L 146.524693 145.098045 
L 146.21574 147.315512 
L 145.681585 148.089004 
L 143.906573 149.107298 
L 143.511497 149.752792 
L 142.429204 150.470615 
L 141.038033 151.010347 
L 140.306265 150.623639 
L 139.749797 149.780608 
L 138.834474 146.358428 
L 138.066637 145.48758 
L 137.384845 143.96291 
L 134.202003 142.31857 
L 130.123249 138.506893 
L 125.824643 136.281096 
L 126.756624 136.523147 
L 124.503088 135.026292 
L 123.980014 133.824368 
L 123.676716 133.682462 
L 123.468021 134.152655 
L 122.591671 133.996879 
L 122.872733 134.394706 
L 122.444339 134.486521 
L 122.257806 133.195571 
L 121.214409 132.152213 
L 120.504954 130.752751 
L 120.786015 132.043701 
L 120.182169 132.010345 
L 120.109878 131.086617 
L 120.004041 131.921281 
L 119.578475 132.260725 
L 119.814909 131.932438 
L 119.264096 130.836237 
L 119.737116 130.051626 
L 119.56174 129.35604 
L 119.033087 130.605305 
L 118.727037 130.674844 
L 119.280678 129.075055 
L 119.241782 127.937092 
L 119.842725 126.888193 
L 119.814909 122.75098 
L 119.734213 122.425444 
L 119.639608 122.620231 
L 119.670328 123.922299 
L 119.389267 124.364677 
L 119.397672 121.866225 
L 118.237358 119.45122 
L 117.427797 118.661069 
L 117.099509 118.77237 
L 116.735001 117.044583 
L 116.217505 116.680113 
L 115.652784 116.905466 
L 115.099067 116.6356 
L 115.146292 116.33509 
L 113.805328 116.301696 
L 112.700797 115.469821 
L 112.803655 115.22777 
L 109.473251 113.138302 
L 109.709838 112.693135 
L 109.339827 112.865608 
L 108.212983 112.473322 
L 108.187995 111.780564 
L 109.22566 110.778929 
L 109.222909 109.994356 
L 108.719322 109.880266 
L 108.655284 110.834599 
L 108.09064 111.410515 
L 108.46898 111.363213 
L 108.071 111.62475 
L 108.001461 112.158942 
L 106.042742 111.368791 
L 106.490698 111.343727 
L 106.115262 111.137859 
L 105.171895 112.128337 
L 104.523726 112.217363 
L 103.193689 111.218517 
L 102.139288 109.841331 
L 101.410347 109.577005 
L 100.478213 109.755057 
L 99.61302 108.614343 
L 98.789399 108.105177 
L 98.049377 107.924336 
L 97.676615 108.14136 
L 96.379973 107.732376 
L 96.149117 107.259394 
L 95.698333 107.156422 
L 95.347656 105.439792 
L 94.399093 104.699694 
L 93.113607 104.235079 
L 92.484848 103.353074 
L 91.850435 103.111024 
L 92.039643 102.991393 
L 91.755983 102.626922 
L 91.394226 102.866184 
L 90.968507 102.362596 
L 90.409364 102.348688 
L 89.877961 101.258066 
L 90.064265 100.940859 
L 90.49006 101.252487 
L 91.920203 101.205185 
L 94.346212 101.897981 
L 95.470152 101.875706 
L 97.014386 100.779505 
L 97.164622 101.756075 
L 97.698776 102.245755 
L 98.831122 102.64083 
L 100.008096 102.423806 
L 100.46996 102.704829 
L 100.778837 102.370964 
L 100.130516 101.864587 
L 98.878501 102.401569 
L 98.230103 101.875706 
L 98.116165 101.241369 
L 97.381646 100.913043 
L 97.637643 100.103406 
L 98.306062 99.564322 
L 98.917473 99.071204 
L 98.896688 99.560922 
L 98.884003 99.939262 
L 99.08177 99.561017 
L 113.288902 99.569022 
" style="fill:#f7fbff;stroke:#000000;stroke-width:0.1;"/>
    <path clip-path="url(#p474f935ea7)" d="M 322.50504 193.336813 
L 322.429998 193.122578 
L 324.391468 192.179402 
L 325.320698 191.831628 
L 325.615668 192.00968 
L 325.610166 192.229493 
L 324.627902 192.349124 
L 323.93801 193.142064 
L 323.617976 193.122578 
L 323.821092 192.760896 
L 322.50504 193.336813 
" style="fill:#f7fbff;stroke:#000000;stroke-width:0.1;"/>
    <path clip-path="url(#p474f935ea7)" d="M 316.056367 193.20037 
L 321.03325 192.432571 
L 322.2602 193.606679 
L 322.06549 193.907189 
L 321.442233 193.801466 
L 321.38385 193.436995 
L 320.796816 193.570534 
L 320.930392 193.812585 
L 320.501846 193.770861 
L 320.340454 194.271659 
L 321.28084 194.285567 
L 321.987544 194.711248 
L 321.139011 193.879373 
L 321.817899 193.96561 
L 322.143435 194.430225 
L 321.951476 194.552645 
L 322.594142 194.761339 
L 322.277012 195.415163 
L 322.816668 195.921539 
L 322.708156 195.292743 
L 323.139453 195.30665 
L 322.830576 194.875391 
L 326.105348 195.326137 
L 326.035808 194.794733 
L 325.470934 195.106323 
L 325.946706 194.538737 
L 327.516004 194.065754 
L 327.824729 193.528772 
L 328.96273 193.275603 
L 327.883264 193.434206 
L 328.222555 192.307362 
L 326.711792 191.603485 
L 328.486958 190.139986 
L 327.104117 190.888414 
L 326.65341 191.514422 
L 325.74359 191.628512 
L 326.556055 190.740967 
L 329.115717 189.683701 
L 330.887978 188.523501 
L 333.300308 186.548123 
L 334.056989 182.077044 
L 335.637291 180.883449 
L 336.324585 179.943024 
L 335.865472 178.841245 
L 336.221575 175.708456 
L 335.960076 174.478678 
L 336.285613 172.405907 
L 337.036791 171.515573 
L 337.139419 171.228799 
L 337.092423 174.147563 
L 338.809053 174.10861 
L 338.605937 174.790306 
L 340.228116 175.257749 
L 340.595299 174.743023 
L 346.705292 183.181613 
L 346.583942 201.53893 
L 331.039131 201.524009 
L 331.032712 200.050366 
L 328.973963 199.966919 
L 327.646677 199.09332 
L 326.316717 198.731639 
L 324.761479 198.759474 
L 324.58893 200.220126 
L 322.296345 200.214529 
L 321.052812 199.549548 
L 319.26649 198.152895 
L 319.313868 194.599985 
L 316.623381 194.588866 
L 316.056367 193.20037 
" style="fill:#f7fbff;stroke:#000000;stroke-width:0.1;"/>
    <path clip-path="url(#p474f935ea7)" d="M 109.108972 89.372251 
L 108.098816 88.871453 
L 105.992689 86.67905 
L 105.380666 86.514869 
L 104.49591 85.15159 
L 104.76016 84.483821 
L 104.612675 83.704788 
L 106.448974 84.717542 
L 106.852379 85.510483 
L 106.682657 86.345147 
L 108.66369 86.603894 
L 108.61081 88.136933 
L 109.261882 88.960478 
L 109.108972 89.372251 
" style="fill:#f7fbff;stroke:#000000;stroke-width:0.1;"/>
    <path clip-path="url(#p474f935ea7)" d="M 88.678673 99.318833 
L 87.432389 98.575946 
L 86.917492 98.66222 
L 87.974797 97.279418 
L 87.665996 96.40303 
L 88.063899 95.854929 
L 88.684404 96.472569 
L 89.012615 97.774676 
L 88.678673 99.318833 
" style="fill:#f7fbff;stroke:#000000;stroke-width:0.1;"/>
    <path clip-path="url(#p474f935ea7)" d="M 90.296878 60.027897 
L 90.1228 59.930408 
L 90.331419 60.425666 
L 90.946346 60.539757 
L 91.739172 61.449539 
L 92.240008 61.538564 
L 92.685213 63.071603 
L 91.967353 64.245711 
L 91.666881 67.968362 
L 92.298391 68.917117 
L 92.181626 69.557032 
L 93.427986 70.269276 
L 93.542153 73.012606 
L 94.2377 74.64854 
L 93.884348 77.544895 
L 95.030602 79.523062 
L 96.35208 80.343819 
L 96.716666 81.556899 
L 97.442779 81.946435 
L 97.85459 81.690438 
L 98.427717 81.951975 
L 99.930151 83.582369 
L 103.213175 85.972347 
L 103.989419 86.929431 
L 103.950675 87.460834 
L 105.016157 88.445772 
L 105.035567 89.98714 
L 105.452956 90.638174 
L 105.970528 90.627055 
L 105.864691 90.159651 
L 106.376608 89.900903 
L 107.019351 90.465701 
L 107.06948 91.595296 
L 108.187995 91.250274 
L 108.563584 91.408877 
L 109.387053 94.761479 
L 110.32744 95.184409 
L 111.882678 95.226133 
L 111.785322 96.806435 
L 112.634009 97.63277 
L 112.725633 99.268742 
L 113.293411 99.544187 
L 113.288902 99.569022 
L 99.08177 99.561017 
L 99.204037 99.327162 
L 99.370932 97.780216 
L 98.6614 96.945552 
L 99.515665 95.571117 
L 99.855186 94.285707 
L 99.059303 93.612398 
L 98.870095 92.838944 
L 97.846184 92.719313 
L 97.871326 92.418842 
L 96.560928 91.253063 
L 96.432853 90.693844 
L 95.57599 90.165191 
L 95.072326 90.259796 
L 94.908182 89.797932 
L 94.346212 89.330527 
L 94.00119 88.404048 
L 93.38076 88.198143 
L 93.035738 87.552649 
L 90.974085 85.76923 
L 88.59813 85.265834 
L 88.14727 84.650754 
L 85.774065 83.276319 
L 85.20644 83.256871 
L 84.73915 82.575193 
L 83.526032 81.85462 
L 83.520377 80.866892 
L 83.17268 80.232555 
L 82.379854 79.990505 
L 82.632794 78.457466 
L 82.198822 76.209395 
L 81.781586 75.68357 
L 80.779912 75.547242 
L 81.169486 75.07147 
L 80.654741 74.559515 
L 80.882922 75.079799 
L 80.326378 75.13822 
L 80.546306 75.797622 
L 80.095522 75.099286 
L 79.917471 71.543567 
L 78.387221 70.597602 
L 77.880806 69.940989 
L 77.187934 69.782386 
L 77.438352 68.619396 
L 77.08523 67.375749 
L 75.507525 65.261216 
L 74.517085 64.810509 
L 73.673977 63.956358 
L 74.074631 63.641941 
L 74.097021 62.918578 
L 73.2316 62.025455 
L 74.191549 62.120059 
L 74.41973 61.101765 
L 73.006322 60.333851 
L 72.605592 59.663331 
L 71.957424 59.540911 
L 71.348075 57.214932 
L 70.176756 56.497148 
L 69.21971 54.936332 
L 69.218182 54.139991 
L 79.397071 53.297876 
L 93.268045 52.282218 
L 92.393224 53.332072 
L 92.286011 54.449326 
L 91.110184 54.76382 
L 90.834701 55.809892 
L 90.060521 56.951141 
L 90.487156 58.13866 
L 90.296878 60.027897 
" style="fill:#f7fbff;stroke:#000000;stroke-width:0.1;"/>
    <path clip-path="url(#p474f935ea7)" d="M 207.763473 89.573017 
L 207.861592 89.686783 
L 207.999449 89.475643 
L 209.132483 89.76383 
L 210.78882 87.638599 
L 212.010039 87.256247 
L 211.587835 86.853931 
L 211.841387 86.010899 
L 212.45043 85.42522 
L 212.625501 84.240299 
L 213.911216 82.096059 
L 214.299338 82.215117 
L 214.911437 81.755278 
L 215.157347 82.043217 
L 215.646645 81.683083 
L 216.831566 81.85846 
L 217.004192 81.083783 
L 217.43717 80.734959 
L 220.044746 81.691947 
L 220.952961 81.34937 
L 221.444704 81.652573 
L 222.497653 81.395927 
L 222.636808 81.73774 
L 223.098672 81.665946 
L 224.294827 81.9685 
L 224.877582 81.886466 
L 225.253554 81.436046 
L 225.30972 81.907825 
L 225.989602 81.650682 
L 226.21037 81.932183 
L 226.682627 81.83884 
L 226.534149 82.083947 
L 227.011907 82.968091 
L 227.638297 83.015469 
L 227.607577 83.73184 
L 228.151895 83.252668 
L 228.083349 84.277075 
L 230.027167 84.807141 
L 230.611145 85.811737 
L 232.735231 87.121371 
L 233.019502 87.88191 
L 234.019494 88.748288 
L 234.235295 90.328055 
L 234.810562 90.609785 
L 235.730851 92.945889 
L 236.67972 93.659585 
L 236.515882 94.115737 
L 237.254376 94.550244 
L 236.944199 94.772197 
L 237.196605 95.618247 
L 237.784327 96.357657 
L 237.733969 96.758369 
L 238.479721 97.147961 
L 238.573791 97.54382 
L 239.747173 98.02112 
L 240.784991 99.531769 
L 241.300347 99.697823 
L 241.972663 101.592829 
L 242.563672 101.768894 
L 242.642916 101.86174 
L 240.987725 103.219498 
L 238.890004 101.628038 
L 237.59894 102.471108 
L 236.428079 105.56779 
L 234.858552 105.626173 
L 232.476712 107.225961 
L 232.752119 109.318219 
L 233.113724 109.115084 
L 233.706719 109.479573 
L 234.121358 108.870301 
L 235.212133 109.276553 
L 235.381397 110.912487 
L 235.05288 111.86682 
L 234.550057 112.078265 
L 233.759753 113.305235 
L 232.763199 112.509448 
L 228.512354 115.887191 
L 230.343304 118.10185 
L 231.208649 118.482979 
L 231.569261 119.028348 
L 231.528149 119.721068 
L 232.379586 120.41948 
L 232.507737 122.163888 
L 233.606537 123.488327 
L 234.285654 123.521683 
L 234.362759 124.072573 
L 234.988766 124.322972 
L 234.930689 124.620654 
L 233.962105 124.242238 
L 233.789784 124.706891 
L 234.891564 125.166023 
L 236.293815 126.337304 
L 237.685062 126.359541 
L 238.817943 126.852048 
L 238.121784 127.060686 
L 238.805869 127.702416 
L 238.422256 127.475037 
L 236.964908 128.037256 
L 236.338901 127.491964 
L 235.27319 127.327801 
L 233.620521 127.625483 
L 232.974492 128.05678 
L 232.451647 129.225253 
L 233.723684 130.304795 
L 232.833274 130.688714 
L 232.465708 134.021887 
L 231.981912 133.607306 
L 230.737921 133.724205 
L 228.27592 131.515048 
L 227.485692 131.832255 
L 227.093062 131.406574 
L 226.241701 132.004728 
L 224.89554 132.074344 
L 224.592012 131.7349 
L 224.836393 131.036468 
L 223.22583 130.558002 
L 222.313335 129.34496 
L 218.109563 128.05678 
L 214.016977 128.432389 
L 214.005973 128.855261 
L 212.380356 131.000418 
L 212.558636 132.653088 
L 211.153405 131.631928 
L 209.064013 131.120011 
L 208.276766 130.571929 
L 208.07342 129.024945 
L 206.677206 128.106853 
L 205.614476 126.85073 
L 206.373678 126.273304 
L 206.534918 125.755771 
L 205.816828 124.954596 
L 205.814765 124.186644 
L 207.406377 122.169505 
L 207.303214 118.841948 
L 207.876112 116.74969 
L 207.439389 115.753576 
L 204.350463 112.977215 
L 201.107252 100.863009 
L 207.763473 89.573017 
" style="fill:#f7fbff;stroke:#000000;stroke-width:0.1;"/>
    <path clip-path="url(#p474f935ea7)" d="M 155.868422 109.969865 
L 154.537239 109.201339 
L 153.925292 108.060702 
L 154.21476 106.385795 
L 153.903208 105.534434 
L 154.025475 104.374158 
L 152.826493 103.578485 
L 152.478949 102.454373 
L 151.435246 101.719891 
L 149.106516 97.805281 
L 150.013967 96.570001 
L 150.352494 96.803684 
L 150.803278 96.506002 
L 151.766819 96.578311 
L 154.05352 97.44081 
L 154.923909 96.670069 
L 153.682898 92.591296 
L 154.33993 91.842887 
L 153.499573 85.535547 
L 154.443093 85.532739 
L 154.999027 79.606605 
L 153.800045 73.766593 
L 153.227147 73.198987 
L 152.595102 67.464755 
L 152.214546 67.946125 
L 151.6606 67.592754 
L 152.302578 66.078017 
L 158.485015 66.075094 
L 158.559139 61.637333 
L 167.77059 61.655597 
L 175.222847 61.643408 
L 176.784656 62.168603 
L 178.490282 64.729067 
L 180.637675 65.573532 
L 182.927661 67.807505 
L 184.595461 68.652389 
L 185.084606 69.535234 
L 186.540119 70.494534 
L 186.727952 70.989621 
L 187.494491 71.355944 
L 187.756754 71.201276 
L 188.051341 71.54479 
L 188.490509 71.400228 
L 190.030769 72.644391 
L 190.661973 72.679811 
L 190.768269 73.110592 
L 191.732345 73.819416 
L 192.109768 75.605223 
L 192.575759 75.763635 
L 192.500794 76.023835 
L 193.616023 77.145445 
L 193.895021 78.04214 
L 193.677309 78.960232 
L 193.898918 80.442817 
L 194.868573 81.45792 
L 195.292381 82.744686 
L 196.871461 84.035311 
L 198.602839 84.702087 
L 199.007009 85.536694 
L 200.196438 86.26382 
L 202.786973 86.873398 
L 202.97962 86.733364 
L 202.835421 87.248643 
L 203.259153 87.243103 
L 203.454857 87.640911 
L 205.398751 88.081473 
L 205.921213 88.827799 
L 206.909055 89.228702 
L 207.309022 89.046103 
L 207.763473 89.573017 
L 201.107252 100.863009 
L 204.350463 112.977215 
L 202.213998 112.298021 
L 198.767441 112.022576 
L 195.133587 116.087423 
L 194.568713 116.037427 
L 193.385778 115.085902 
L 192.673649 115.258375 
L 192.200857 114.66303 
L 190.537184 114.996858 
L 189.416377 114.376352 
L 189.252157 114.176044 
L 187.371077 115.00236 
L 184.774964 113.711391 
L 184.25808 112.960174 
L 183.086226 113.0381 
L 180.345839 111.19905 
L 179.700727 112.236811 
L 179.349209 111.891865 
L 179.0858 112.064338 
L 178.896438 113.675227 
L 178.222365 115.441967 
L 177.168651 115.903812 
L 176.114021 115.828694 
L 176.940317 118.121298 
L 176.583756 118.797378 
L 175.404872 119.387221 
L 175.276644 121.710372 
L 173.20628 123.379758 
L 169.76278 123.544112 
L 169.085649 121.846777 
L 167.603313 120.166273 
L 166.9352 118.444007 
L 162.748469 117.592646 
L 162.124448 113.188355 
L 160.549953 111.388259 
L 160.232441 110.108389 
L 158.379483 109.855277 
L 158.095976 109.173581 
L 157.531102 108.967656 
L 156.532485 109.273744 
L 155.868422 109.969865 
" style="fill:#f7fbff;stroke:#000000;stroke-width:0.1;"/>
    <path clip-path="url(#p474f935ea7)" d="M 326.481013 207.328793 
L 327.329547 207.977038 
L 328.086228 207.957552 
L 329.01561 209.387657 
L 329.677687 209.640826 
L 330.234155 210.717579 
L 331.004896 211.065352 
L 331.029961 210.71479 
L 331.31087 210.753724 
L 331.202358 211.02638 
L 331.653218 211.449309 
L 332.83279 211.696938 
L 333.724881 212.483574 
L 334.287921 213.307846 
L 334.215631 213.919945 
L 334.552324 213.936642 
L 334.418747 214.559861 
L 334.758191 214.646097 
L 334.527259 214.913213 
L 335.406359 214.902094 
L 336.054681 215.169171 
L 336.063087 215.491918 
L 336.914371 215.597641 
L 337.08417 216.101229 
L 336.669531 216.15686 
L 336.96175 216.346069 
L 336.277207 217.228035 
L 336.508139 217.383849 
L 336.274456 217.848502 
L 336.597241 218.082185 
L 336.263299 218.694285 
L 336.555517 218.736047 
L 336.291115 219.011492 
L 323.559594 219.008702 
L 318.729584 227.149571 
L 320.187467 228.996989 
L 319.347186 229.831653 
L 319.427882 230.802664 
L 318.985581 231.342416 
L 319.29996 233.022901 
L 318.971673 233.899308 
L 318.375163 234.277782 
L 312.850676 228.718755 
L 312.388812 228.067702 
L 313.081608 228.254121 
L 313.395988 228.907944 
L 313.142742 228.062142 
L 312.377655 227.683764 
L 312.319273 227.956419 
L 311.070009 227.180176 
L 308.886012 224.954361 
L 305.357995 222.166537 
L 301.526908 219.812761 
L 301.521253 219.598527 
L 301.997025 219.773808 
L 302.258677 219.542895 
L 301.874605 218.880704 
L 300.077279 218.388235 
L 299.979007 218.247953 
L 300.450193 216.922004 
L 299.582097 214.651657 
L 300.455695 213.218858 
L 300.400064 211.74147 
L 301.724369 210.926254 
L 301.763342 209.613048 
L 302.136257 209.621359 
L 302.082459 208.238537 
L 304.551185 206.663794 
L 304.927309 205.98311 
L 305.555609 204.649462 
L 306.90498 203.656157 
L 307.731352 200.131081 
L 308.184734 199.813875 
L 309.406259 200.292455 
L 310.883475 200.540046 
L 310.699998 202.429283 
L 310.969979 204.287781 
L 311.776713 204.432419 
L 312.511232 205.69284 
L 313.217936 206.121329 
L 316.973982 203.05529 
L 317.182676 202.562802 
L 319.308137 201.836631 
L 320.159651 201.844941 
L 320.067798 201.402525 
L 320.948121 200.606853 
L 321.342127 200.773824 
L 321.392256 201.182789 
L 321.723218 200.857252 
L 322.616456 200.837823 
L 322.983716 201.174459 
L 323.121877 201.994394 
L 322.9141 202.465351 
L 323.865567 202.590637 
L 324.210666 203.286165 
L 324.199509 204.680105 
L 325.779047 205.037183 
L 325.893902 205.695648 
L 326.592276 205.868121 
L 326.976195 206.471892 
L 326.481013 207.328793 
" style="fill:#f7fbff;stroke:#000000;stroke-width:0.1;"/>
    <path clip-path="url(#p474f935ea7)" d="M 186.609888 148.971352 
L 186.001915 149.238067 
L 185.751497 149.936403 
L 186.188219 150.609674 
L 185.211611 151.280252 
L 184.875071 152.120514 
L 185.835632 152.83826 
L 186.085057 154.165412 
L 184.183956 154.793521 
L 183.679146 154.924423 
L 183.480079 154.971993 
L 183.420016 154.41029 
L 183.061238 154.329594 
L 182.454564 153.049763 
L 180.612839 151.488909 
L 180.782485 151.143886 
L 180.331778 151.377607 
L 178.434345 149.171297 
L 176.828978 147.799613 
L 176.367114 147.838586 
L 175.387754 145.629487 
L 172.586004 143.161602 
L 171.414761 140.944135 
L 166.851753 137.591532 
L 166.634805 137.140825 
L 162.63392 134.684059 
L 162.795389 134.467073 
L 165.622968 136.225274 
L 165.076587 135.822022 
L 165.64704 136.055743 
L 165.844654 135.696813 
L 165.346568 134.419771 
L 164.742874 134.403074 
L 164.639788 134.622849 
L 165.062832 134.639546 
L 164.236536 135.106988 
L 163.894188 134.6674 
L 163.17648 134.636795 
L 162.508825 133.74925 
L 161.242826 133.26236 
L 162.478029 134.369679 
L 160.666795 133.167756 
L 159.987907 131.837833 
L 160.669546 132.118818 
L 160.844846 131.932438 
L 160.483241 131.264668 
L 160.694534 129.995994 
L 160.085262 129.625945 
L 160.18277 131.30643 
L 159.573498 131.423271 
L 158.299092 129.339381 
L 157.322407 128.627099 
L 157.798179 128.588165 
L 158.794427 129.806786 
L 159.311922 129.890233 
L 159.264544 129.436737 
L 158.952839 129.333803 
L 159.158783 129.04445 
L 159.581674 129.47292 
L 160.591677 129.570275 
L 160.007469 128.743979 
L 159.328581 128.37393 
L 158.913943 128.532495 
L 158.393696 127.912066 
L 157.058234 127.939882 
L 157.024993 127.5782 
L 157.439402 127.745133 
L 157.41426 127.197032 
L 156.952473 126.980008 
L 156.59637 128.184721 
L 156.646423 127.553174 
L 156.212451 126.980008 
L 153.296686 126.056319 
L 154.67265 126.163952 
L 154.050616 125.663994 
L 152.873795 125.81423 
L 153.310594 125.588876 
L 153.104727 125.182682 
L 152.820915 125.288405 
L 152.898707 124.183836 
L 151.585482 123.991877 
L 151.796927 124.534399 
L 151.374036 125.046354 
L 151.118192 124.617884 
L 150.450461 124.651278 
L 150.277912 125.007381 
L 149.482105 124.345229 
L 150.002428 123.830484 
L 150.606199 123.91118 
L 150.778748 124.236717 
L 150.859444 123.710853 
L 151.791425 122.901216 
L 152.29509 121.618596 
L 151.565995 122.653587 
L 149.893993 123.72755 
L 149.201197 123.824944 
L 148.847768 123.126569 
L 147.990905 122.806612 
L 149.000832 124.053087 
L 148.071525 123.30187 
L 146.505207 123.193358 
L 147.56511 123.015306 
L 147.693108 122.514508 
L 146.830743 121.966369 
L 146.569168 122.817769 
L 146.482893 122.008131 
L 146.132369 121.699292 
L 146.398682 120.998052 
L 146.263118 119.454009 
L 148.004813 116.527088 
L 147.715499 118.060088 
L 148.42205 116.201552 
L 148.917384 116.340669 
L 149.042555 116.82477 
L 148.817125 116.94719 
L 149.560051 117.503658 
L 149.752087 116.777468 
L 149.256828 116.521509 
L 149.135096 116.208983 
L 155.717193 111.265858 
L 155.811339 110.926414 
L 155.868422 109.969865 
L 156.532485 109.273744 
L 157.531102 108.967656 
L 158.095976 109.173581 
L 158.379483 109.855277 
L 160.232441 110.108389 
L 160.549953 111.388259 
L 162.124448 113.188355 
L 162.748469 117.592646 
L 166.9352 118.444007 
L 167.603313 120.166273 
L 169.085649 121.846777 
L 169.76278 123.544112 
L 169.356089 126.665648 
L 169.528409 128.126301 
L 171.116964 131.197937 
L 171.756956 131.915683 
L 172.397025 131.985299 
L 174.224918 133.896678 
L 175.420843 136.606633 
L 176.65383 136.779125 
L 178.125239 135.721915 
L 180.599237 137.508085 
L 181.024879 138.640412 
L 181.541764 139.077326 
L 181.765054 142.037585 
L 182.992081 144.07146 
L 183.461816 144.94225 
L 183.784372 146.770201 
L 184.288112 147.108537 
L 185.339839 148.200305 
L 186.463626 148.172451 
L 186.609888 148.971352 
" style="fill:#f7fbff;stroke:#000000;stroke-width:0.1;"/>
    <path clip-path="url(#p474f935ea7)" d="M 254.117226 189.743975 
L 254.175608 190.663041 
L 253.290777 191.731465 
L 254.086659 192.791482 
L 253.23889 192.525838 
L 254.028277 195.334466 
L 253.786188 195.537602 
L 252.545329 194.76965 
L 251.510338 195.570938 
L 250.228368 196.013756 
L 249.237316 194.380133 
L 248.452591 194.452538 
L 248.166027 195.123021 
L 247.612234 195.086875 
L 245.760728 193.049791 
L 246.429834 190.891222 
L 247.687504 189.986961 
L 247.484388 188.804562 
L 247.880839 188.284812 
L 249.395729 188.548546 
L 250.419563 189.096628 
L 251.096159 188.819788 
L 253.199153 190.023126 
L 254.117226 189.743975 
" style="fill:#f7fbff;stroke:#000000;stroke-width:0.1;"/>
    <path clip-path="url(#p474f935ea7)" d="M 240.145076 147.232045 
L 239.824507 148.436778 
L 240.459532 148.372778 
L 241.638721 149.624794 
L 241.354985 150.342654 
L 240.231198 151.260728 
L 240.550697 151.61129 
L 245.419908 153.50324 
L 245.364277 152.384744 
L 246.482868 153.318636 
L 246.94733 152.857803 
L 248.419197 155.194863 
L 251.941406 156.252168 
L 253.878041 155.464691 
L 254.579396 155.471511 
L 257.288911 157.376165 
L 256.050116 159.491482 
L 255.928766 159.676372 
L 255.742691 159.922263 
L 254.855108 159.910858 
L 255.007636 160.252996 
L 255.555622 160.150043 
L 255.19119 160.330922 
L 255.369241 160.547984 
L 255.102088 160.820621 
L 255.530634 161.299086 
L 255.839511 161.146138 
L 256.23451 161.844455 
L 255.48891 162.462152 
L 255.113244 162.384226 
L 255.113244 162.773761 
L 254.612408 162.720881 
L 254.317591 163.580552 
L 255.497392 164.387458 
L 255.591844 165.683948 
L 254.682176 166.32948 
L 254.540117 167.525806 
L 252.626026 167.826297 
L 251.679984 167.514687 
L 251.304318 166.738444 
L 250.300811 166.991747 
L 249.854842 166.802443 
L 248.730749 163.22999 
L 248.177184 163.410888 
L 247.762546 164.031279 
L 247.058593 164.103703 
L 246.607886 165.060748 
L 244.927477 165.433548 
L 243.817292 164.123132 
L 243.291543 164.454265 
L 242.815924 165.480717 
L 238.782867 163.807224 
L 237.743215 163.179917 
L 236.385974 163.163278 
L 235.212133 164.515456 
L 234.627161 164.607214 
L 233.188842 163.981206 
L 231.016384 162.217255 
L 228.659533 161.991901 
L 227.468651 161.051495 
L 226.428006 161.315822 
L 225.444367 161.099065 
L 227.410575 158.870174 
L 227.090005 155.701278 
L 227.708066 155.111435 
L 227.582818 154.301816 
L 226.945807 153.711877 
L 225.883076 153.467076 
L 224.984642 153.673019 
L 223.607456 155.047416 
L 221.979852 154.723905 
L 221.342764 153.447647 
L 219.870438 152.09266 
L 219.255435 151.547291 
L 218.231754 149.624794 
L 218.737557 148.514704 
L 217.875192 147.468518 
L 218.746575 146.305547 
L 218.754598 145.754658 
L 220.109776 145.904912 
L 221.984819 144.157696 
L 223.342977 143.537191 
L 223.837777 142.696948 
L 226.67338 140.65205 
L 228.968028 138.495774 
L 230.883113 135.638392 
L 232.465708 134.021887 
L 234.811479 136.717915 
L 235.086886 138.253685 
L 234.694255 140.031564 
L 236.539266 142.159986 
L 236.029412 143.52888 
L 236.433046 145.518185 
L 236.15764 146.859245 
L 236.366946 147.479636 
L 236.992953 147.699488 
L 237.680095 147.162525 
L 240.145076 147.232045 
" style="fill:#f7fbff;stroke:#000000;stroke-width:0.1;"/>
   </g>
  </g>
 </g>
 <defs>
  <clipPath id="p474f935ea7">
   <rect height="200.19512" width="334.8" x="54" y="43.18244"/>
  </clipPath>
 </defs>
</svg>
